<svg width="272" height="174" viewBox="0 0 272 174" fill="none" xmlns="http://www.w3.org/2000/svg">
<path d="M95.7328 173.851C93.2693 173.404 87.7985 171.544 85.727 170.448C84.6209 169.861 83.3003 169.237 82.7943 169.06C81.9034 168.751 81.8559 168.773 81.4746 169.685C80.6035 171.772 78.1229 173.127 75.7679 172.803C74.4814 172.626 72.7723 171.316 71.8501 169.801C71.3154 168.919 71.2212 166.312 71.6707 164.701C72.1291 163.043 74.6841 160.891 77.1701 160.064C77.6626 159.902 77.6851 159.586 77.5254 154.979C77.4321 152.279 77.2302 148.916 77.0795 147.506C76.1573 139.037 75.6486 135.972 75.1641 135.972C75.0879 135.972 73.6201 137.413 71.8985 139.176C67.2271 143.966 64.3599 147.907 63.9499 150.1C63.6143 151.903 62.7154 153.252 61.4074 153.921C59.3018 154.996 56.858 154.505 55.2961 152.695L54.2608 151.493L54.3774 149.072C54.5478 145.609 55.0458 144.709 59.5745 139.734C61.3589 137.772 68.1548 131.874 69.609 131.023C69.8423 130.886 70.2433 130.601 70.4936 130.391C70.7466 130.18 71.6599 129.516 72.5184 128.918L74.0831 127.83L74.0149 126.276C73.9781 125.421 73.8669 122.93 73.7709 120.736C73.421 112.868 74.8546 107.537 78.0861 104.689C80.2993 102.738 81.6567 102.229 84.6092 102.237C91.9828 102.257 97.101 107.203 95.8405 113.09C95.2861 115.676 93.6192 117.775 86.8198 124.43L80.4303 130.686L80.5837 135.537C80.6663 138.205 80.8089 141.155 80.8968 142.095C80.9821 143.035 81.1274 144.572 81.2126 145.512C81.2979 146.452 81.4943 148.312 81.6477 149.641C81.8012 150.971 82.0434 153.281 82.1887 154.767C82.7485 160.577 82.6238 160.218 84.4298 161.121C86.6233 162.221 87.2208 162.571 87.8299 163.123C88.117 163.382 88.4409 163.596 88.5494 163.596C88.6571 163.596 89.286 163.943 89.949 164.368C95.252 167.765 98.6656 168.452 103.527 167.095C104.387 166.857 105.41 166.492 105.803 166.287C106.195 166.079 106.833 165.845 107.225 165.763C108.697 165.453 113.845 161.949 115.618 160.053C119.658 155.728 121.046 152.737 120.135 150.322C119.45 148.497 118.058 147.933 114.255 147.933C110.176 147.933 106.42 148.935 102.142 151.163C98.7311 152.939 97.0947 154.098 94.4185 156.638C93.0271 157.96 91.6589 159.053 91.3772 159.07C89.2232 159.205 88.1655 158.39 88.1655 156.604C88.1655 155.602 88.3413 155.226 89.2402 154.303C89.8297 153.697 91.2409 152.561 92.3757 151.778C93.5079 150.995 95.4879 149.613 96.7762 148.707C102.378 144.769 105.564 143.021 109.453 141.756C111.566 141.07 112.366 140.959 115.049 140.97C118.073 140.987 118.247 141.021 120.169 142.015C122.377 143.154 124.619 145.268 125.244 146.793C125.825 148.203 126.072 150.969 125.765 152.572C125.515 153.873 125.535 153.953 126.249 154.323C126.661 154.534 127.241 154.979 127.54 155.309C128.26 156.107 128.676 156.063 129.307 155.124C130.197 153.797 130.51 153.104 131.449 150.402C132.2 148.238 132.385 147.196 132.527 144.325C132.707 140.717 132.78 140.506 134.339 139.059C135.107 138.344 136.849 138.139 137.984 138.624C140.236 139.586 140.654 140.64 141.645 147.79C141.798 148.887 142.041 150.362 142.185 151.066C142.521 152.7 143.084 155.534 143.272 156.547C143.355 156.978 143.506 157.331 143.611 157.331C144.086 157.331 144.512 154.466 144.786 149.405C145.116 143.339 145.303 142.721 147.218 141.406C148.341 140.637 150.84 140.375 151.338 140.976C151.522 141.201 151.844 141.383 152.051 141.383C152.669 141.383 154.008 143.655 154.657 145.797C155.192 147.566 155.911 150.861 156.353 153.56C156.435 154.07 156.617 154.56 156.756 154.645C156.896 154.731 157.009 155.027 157.009 155.3C157.009 156.083 158.119 158.185 158.532 158.185C159.169 158.185 159.735 156.676 160.617 152.632C160.995 150.895 161.098 149.234 161.055 145.655C161.001 141.286 161.041 140.864 161.639 139.677C162.372 138.21 163.439 137.561 165.118 137.566C166.787 137.573 167.439 137.778 168.269 138.553C169.936 140.11 170.298 141.206 171.083 147.079C171.862 152.897 172.528 155.665 173.553 157.331L174.164 158.327L175.331 155.907C175.97 154.574 176.789 152.843 177.146 152.062C179.794 146.253 184.439 141.218 188.445 139.811C193.256 138.125 201.815 138.635 206.416 140.879C209.4 142.337 210.643 144.131 210.935 147.42C211.132 149.604 210.867 151.111 209.909 153.227C209.618 153.865 209.183 154.554 208.942 154.756C208.7 154.959 208.501 155.28 208.501 155.474C208.501 156.069 203.929 160.239 201.671 161.702C198.812 163.556 195.085 165.709 192.977 166.728C190.755 167.802 189.469 167.668 188.394 166.258C187.777 165.449 187.685 165.088 187.807 163.989C188.018 162.132 188.072 162.092 192.945 160.286C194.529 159.697 196.976 157.824 199.335 155.383C201.426 153.221 201.716 152.814 202.799 150.496C203.129 149.792 203.522 148.992 203.676 148.719C204.615 147.024 203.141 145.849 199.397 145.302C197.398 145.008 196.754 145.034 194.616 145.472C191.555 146.105 188.703 147.559 187.168 149.277C185.62 151.012 185.066 152.245 182.858 158.894C180.522 165.931 178.46 168.152 174.263 168.152C171.704 168.152 169.436 166.509 167.951 163.576C167.055 161.805 166.836 161.702 166.301 162.815C165.609 164.248 163.735 166.051 162.258 166.706C158.609 168.323 154.572 166.694 151.955 162.55C151.178 161.317 150.751 161.007 150.751 161.674C150.751 162.297 149.161 165.412 148.353 166.37C147.021 167.95 144.732 168.702 143.272 168.038C142.772 167.808 142.109 167.58 141.801 167.528C141.113 167.414 138.826 164.254 138.812 163.399C138.809 163.055 138.674 162.696 138.518 162.599C138.362 162.503 138.234 162.2 138.234 161.927C138.234 161.181 137.568 159.899 137.182 159.896C136.993 159.894 136.613 160.369 136.336 160.953C135.807 162.072 134.22 163.798 132.974 164.615C131.833 165.364 129.236 165.786 127.239 165.544C125.202 165.298 123.21 164.447 121.563 163.114C120.92 162.596 120.297 162.172 120.181 162.172C120.064 162.172 118.673 163.403 117.094 164.906C115.512 166.409 113.487 168.141 112.591 168.751C111.692 169.36 110.876 169.992 110.776 170.157C110.485 170.627 105.527 173.019 103.96 173.447C102.125 173.945 97.5137 174.172 95.7328 173.851ZM82.3816 121.559C85.8096 118.993 89.2438 114.554 89.4852 112.373L89.6305 111.054L88.248 110.413C86.5695 109.633 84.8308 109.571 84.2737 110.271C83.1612 111.666 82.4588 113.019 81.9241 114.79C81.2898 116.906 80.4725 122.587 80.8053 122.587C80.9166 122.587 81.628 122.126 82.3816 121.559ZM176.213 131.766C174.773 130.854 173.609 129.309 173.405 128.03C173.14 126.364 174.252 124.046 175.873 122.895C178.789 120.824 181.779 118.871 183.751 117.746C184.923 117.077 186.636 116.08 187.552 115.534C189.048 114.642 189.364 114.559 190.681 114.708C191.939 114.85 192.291 115.041 193.21 116.063C194.089 117.04 194.276 117.461 194.276 118.461C194.276 120.525 193.682 121.463 191.404 122.974C188.829 124.683 186.257 126.731 183.637 129.154C180.951 131.641 180.457 131.934 178.625 132.133C177.382 132.27 176.892 132.193 176.213 131.766ZM18.6613 100.882C15.6452 99.2893 13.3754 96.2879 12.7725 93.0871C12.3311 90.7431 12.559 85.7687 13.2103 83.5729C13.4633 82.7125 13.8051 81.4938 13.9639 80.8669C14.1263 80.241 14.4367 79.324 14.6556 78.831C14.8745 78.3379 15.0566 77.826 15.062 77.6922C15.1024 76.6468 19.7962 68.8012 21.1841 67.4657C21.5169 67.1433 21.9126 66.6656 22.0606 66.4006C22.5352 65.5492 25.8842 61.8671 28.9336 58.8423L31.9031 55.9002L31.4142 53.8589C31.1468 52.7363 30.5691 50.5378 30.134 48.9715C29.6989 47.4053 28.808 44.1416 28.1567 41.7186C27.5053 39.2947 26.9168 37.2587 26.8513 37.1932C26.4988 36.8375 20.5669 42.4505 18.0405 45.5319C16.0605 47.9495 14.7695 49.6864 14.7695 49.9397C14.7695 50.0744 14.5731 50.3474 14.3308 50.5495C13.6113 51.1449 11.1595 56.4705 10.3341 59.224C9.68815 61.3821 9.56345 62.3566 9.53743 65.4037C9.515 67.9525 9.61189 69.1254 9.86219 69.376C10.8778 70.3926 9.7967 74.2265 8.15763 75.4219C7.09093 76.1996 4.36004 76.3909 3.16235 75.7694C1.91084 75.1228 0.789418 73.6077 0.363277 71.9939C-0.0834989 70.2902 -0.126562 66.4518 0.28074 64.4356C0.621653 62.7436 2.21228 57.6695 2.53974 57.2303C2.65637 57.074 2.84387 56.6268 2.9605 56.2334C3.32743 54.9806 4.78977 52.0502 5.23654 51.6801C5.47249 51.4835 5.66537 51.1646 5.66537 50.9742C5.66537 50.783 5.92196 50.3959 6.23506 50.1112C6.54726 49.8265 6.80384 49.4762 6.80384 49.3334C6.80384 48.8179 10.1861 44.9418 12.9573 42.2799C14.5076 40.79 17.1165 38.5744 18.7573 37.3503C20.3964 36.1253 21.9323 34.9722 22.1656 34.7845C22.3988 34.5932 23.0394 34.1262 23.5884 33.7391C25.6106 32.3175 25.6052 32.3318 25.153 30.5923C24.6524 28.6668 23.9347 22.6038 24.0289 21.0636C24.3053 16.4241 25.3944 13.7191 28.0831 11.0105C30.3897 8.68712 33.8006 6.39701 34.9588 6.39701C35.2575 6.39701 35.5733 6.28295 35.6586 6.14644C35.7438 6.00724 36.1681 5.81954 36.6006 5.73063C37.033 5.64262 38.0252 5.42079 38.8075 5.24117C42.9245 4.29819 46.5005 4.81099 49.3364 6.74995C51.3307 8.11414 52.1184 9.69746 52.1498 12.4088C52.1641 13.6077 52.0188 14.8812 51.8259 15.2566C51.6348 15.6329 51.3424 16.2562 51.1773 16.6495C51.0095 17.042 50.7188 17.623 50.5313 17.9455C49.985 18.8732 47.1716 22.3452 46.9607 22.3452C46.8585 22.3479 46.3866 22.6981 45.9111 23.1283C44.4801 24.4269 42.9783 25.5369 38.8452 28.3479C36.6741 29.8235 34.1451 31.5433 33.2237 32.1702C32.3015 32.7961 31.4707 33.5963 31.3774 33.9466C31.1836 34.6785 31.9435 38.6741 33.5539 45.4124C35.4737 53.4404 35.3688 53.2239 36.6965 51.7852C37.0751 51.3721 38.0907 50.5153 38.9502 49.8777C39.8096 49.2427 40.6431 48.5764 40.7992 48.4021C40.9553 48.2288 41.5393 47.7528 42.0964 47.346C42.6509 46.9383 43.4197 46.3401 43.8037 46.0132C44.9556 45.0307 49.7437 41.1286 52.4997 38.931L55.0888 36.86L55.4333 34.6588C55.794 32.3462 57.5156 25.0933 58.0503 23.6267C58.2207 23.1561 58.5392 22.3676 58.7554 21.8755C58.9716 21.3824 59.1484 20.8355 59.1484 20.6648C59.1484 20.4906 59.4041 19.87 59.7172 19.2863C60.0303 18.7025 60.2859 18.0649 60.2859 17.8709C60.2859 17.3671 62.457 13.0725 63.5919 11.3329C64.1212 10.5237 64.5536 9.73788 64.5536 9.587C64.5536 9.43881 64.7636 9.13975 65.0202 8.9287C65.2758 8.71496 65.8078 8.02882 66.2035 7.40286C67.6398 5.12442 70.516 2.60081 73.1985 1.26805C75.7024 0.0242103 75.7562 0.00984101 78.7491 0.000860068C81.4261 -0.00991693 81.9294 0.0727066 83.1585 0.701365C83.9238 1.09472 84.942 1.903 85.4256 2.50112C86.2564 3.52673 86.3048 3.72341 86.3102 6.08358C86.3129 7.45944 86.1684 8.89188 85.9863 9.27087C84.2423 12.9162 83.73 13.8673 83.2805 14.2714C82.9935 14.5309 82.7602 14.8498 82.7602 14.9746C82.7602 15.103 82.2363 15.9715 81.5966 16.9055C79.4264 20.0721 74.2966 25.6061 70.0863 29.3224C67.7798 31.3583 65.2391 33.599 64.4397 34.3058C63.643 35.0117 62.0811 36.3337 60.9714 37.2417L58.9573 38.8995L58.6244 42.6526C58.2207 47.2319 58.2091 49.4727 58.5733 52.4148C58.7276 53.6532 58.9178 55.4359 58.995 56.3762C59.0739 57.3156 59.2731 58.916 59.4355 59.9362C59.6005 60.9555 59.8087 62.3 59.8966 62.9259C59.9872 63.5528 60.1756 64.1877 60.3147 64.3359C60.4564 64.4841 60.5703 64.9879 60.5703 65.4522C60.5703 65.9192 60.7695 66.5174 61.0117 66.785C61.4244 67.243 61.5518 67.2403 63.216 66.7051C71.4688 64.0593 79.7072 63.9057 84.0234 66.3234C87.6021 68.3279 89.9032 71.7083 90.507 75.8637C90.7851 77.7775 90.76 78.4466 90.3419 80.4026C90.071 81.6644 89.4681 83.6178 89.0043 84.7458C88.5405 85.8737 88.2139 86.8509 88.2821 86.9155C88.3476 86.9811 88.6607 86.8985 88.9765 86.7278C89.2923 86.5599 90.4586 86.4207 91.5701 86.4207C93.5905 86.4207 95.2322 85.854 96.8417 84.5976C97.1548 84.3533 98.051 83.6609 98.8334 83.06C99.6157 82.4565 100.5 81.5109 100.796 80.9585C101.336 79.9527 101.336 79.9473 100.58 77.2764C99.0783 71.9589 98.182 65.9103 98.5203 63.3561C98.9276 60.3062 100.272 57.9083 102.13 56.9375C103.547 56.1966 105.592 56.114 106.821 56.7489C110.153 58.4634 112.05 62.3539 112.059 67.4684C112.064 72.1726 111.217 76.6612 109.569 80.6765L108.827 82.479L109.379 83.5181C110.167 85.0107 112.351 87.1975 113.288 87.4283C113.894 87.5819 114.238 87.4822 114.727 87.0242C115.08 86.6937 115.501 86.4207 115.66 86.4207C116.002 86.4207 121.308 80.8696 121.816 79.9814C122.005 79.6509 122.809 78.4268 123.6 77.2647C124.394 76.0999 125.134 74.9611 125.244 74.733C125.358 74.5049 125.822 73.6769 126.28 72.8938C128.297 69.4272 128.854 67.7415 128.331 66.6826C128.164 66.3404 127.958 65.5456 127.879 64.9197C127.557 62.4392 127.379 61.4791 127.136 60.9322C126.997 60.6197 126.821 59.788 126.741 59.0812C126.661 58.3754 126.465 57.0309 126.3 56.0915C125.46 51.2473 124.431 42.7837 123.998 37.1536C123.859 35.3512 123.665 30.0336 123.569 25.3349C123.361 15.4901 123.623 12.8677 125.128 9.71183C126.26 7.34269 128.038 5.71357 129.238 5.94976C129.688 6.03867 130.231 6.11231 130.445 6.11231C131.242 6.11231 133.033 8.07463 133.244 9.17388C133.355 9.76033 133.565 10.8174 133.713 11.5233C133.859 12.2292 134.101 13.5736 134.248 14.5139C134.4 15.4533 134.653 16.9908 134.814 17.9311C135.309 20.804 135.807 24.6658 136.536 31.3152C136.692 32.7252 136.897 36.8914 136.993 40.5709C137.207 48.6895 136.832 53.5257 135.477 60.0781C134.809 63.3166 134.644 63.9515 133.864 66.3431C133.102 68.6755 133.295 70.8694 133.397 71.1847C133.5 71.5 133.682 72.0415 133.682 72.0415C133.682 72.0415 133.796 73.0186 133.938 73.3778C134.077 73.7389 134.351 74.6073 134.544 75.3141C135.307 78.0847 135.469 78.6065 135.708 79.0842C135.848 79.3555 135.958 80.0129 135.958 80.0129L136.228 80.9415C136.228 80.9415 136.777 82.2679 137.116 83.2882C137.454 84.3075 137.845 85.2613 137.984 85.4094C138.12 85.5576 138.234 86.0641 138.234 86.0641C138.234 86.0641 139.565 88.5078 139.745 88.2177C140.49 87.0098 140.236 76.0577 140.236 76.0577C140.236 76.0577 140.094 75.0738 139.941 74.4564C139.845 74.0646 139.744 73.857 139.656 73.4631C139.294 71.8465 139.312 70.3163 139.767 69.2224C140.734 66.9018 142.751 65.9615 149.616 64.635C155.695 63.4558 158.603 62.8011 161.488 61.9605C162.62 61.63 163.976 61.3597 164.506 61.3597C165.774 61.3597 166.872 62.2623 167.285 63.6381C167.925 65.7791 166.568 67.428 163.784 67.8869C162.953 68.0235 161.311 68.2911 160.139 68.4761C158.967 68.662 156.916 69.1739 155.587 69.6158C154.259 70.054 152.208 70.6979 151.035 71.0455C149.864 71.3922 148.294 71.8681 147.551 72.1043L146.2 72.5318V80.7277C146.2 88.2375 146.151 89.0862 145.605 90.8518C144.888 93.1725 143.977 94.6848 142.782 95.5362C142.041 96.0661 141.616 96.1487 140.202 96.0463C138.771 95.943 138.368 95.7841 137.568 95.0063C136.578 94.0472 135.389 91.3727 135.389 91.3727C135.389 91.3727 135.238 90.8245 135.133 90.4755C134.822 89.4345 134.587 89.0179 134.228 87.8441C133.873 86.6712 133.346 85.4382 133.346 85.4382C133.346 85.4382 133.22 84.8799 133.113 84.5293C133.015 84.207 132.829 83.7148 132.829 83.7148L132.544 82.9828L132.294 81.9321L131.407 78.7995C131.407 78.7995 131.223 78.3274 131.122 78.0191C130.994 77.6282 130.837 77.0052 130.837 77.0052C130.837 77.0052 130.004 76.0631 129.563 77.5925C129.213 78.8058 126.135 84.4323 126.135 84.4323L125.717 85.0394C125.717 85.0394 123.176 89.0772 121.709 90.6013C120.059 92.3184 119.255 92.8849 117.362 93.8245C117.128 93.9408 117 94 116.756 94.1092C116.511 94.2183 113 95 111.612 94.1433C110.261 93.7562 108.309 92.1504 106.81 90.1935C106.059 89.2137 105.362 88.4135 105.257 88.4135C105.155 88.4135 104.435 89.0664 103.658 89.8603C101.71 91.8622 99.2344 93.7104 96.7053 95.0638C94.6859 96.1397 94.4266 96.2053 92.1084 96.208C90.0432 96.2116 89.4313 96.1002 88.2758 95.5048C86.6376 94.6588 85.8293 93.4176 85.7818 91.6718C85.7611 90.9793 85.6364 90.41 85.5028 90.41C85.3691 90.4073 84.663 90.8967 83.9381 91.4948C82.8652 92.3777 81.2781 93.2641 80.4842 93.4176C80.4079 93.4347 80.0858 93.5595 79.7727 93.6969C79.4605 93.8361 77.9892 93.9502 76.5018 93.9502C73.7565 93.9529 73.3214 93.8272 70.5699 92.2699C68.1889 90.9228 63.8332 85.0762 61.5464 80.1556C61.2907 79.6087 60.713 78.4035 60.2581 77.4812C59.8051 76.5588 59.4301 75.5961 59.4274 75.3455C59.4238 75.0923 59.1995 74.6109 58.9295 74.2741C58.4369 73.6625 58.4342 73.6625 56.8329 74.1807C55.9474 74.4654 54.8358 74.901 54.355 75.1488C52.1354 76.2993 49.7607 75.1632 49.7607 72.9503C49.7607 71.3042 50.918 70.4384 54.1701 69.658C56.5709 69.0805 57.1567 68.7608 57.1567 68.0351C57.1567 67.6705 57.0284 67.2942 56.8723 67.1981C56.7162 67.1011 56.5879 66.6054 56.5879 66.0989C56.5879 65.5914 56.474 65.0535 56.3322 64.9053C56.1923 64.7571 56.0048 64.1222 55.9133 63.4953C55.8254 62.8694 55.6118 61.5249 55.4441 60.5056C54.878 57.1082 54.5909 53.5742 54.4483 48.28C54.3693 45.3954 54.2554 42.9831 54.1953 42.9229C54.0786 42.8035 50.4578 45.6603 47.2254 48.4219C46.6656 48.9006 44.8587 50.3725 43.217 51.6882C41.5761 53.0039 39.7836 54.4911 39.2346 54.9923C38.6855 55.4934 37.8862 56.1795 37.4564 56.5154C37.0267 56.8549 36.6741 57.3812 36.6741 57.6865C36.6741 57.9937 36.9989 60.0018 37.3972 62.1518C39.4337 73.1892 39.7064 83.0852 38.1077 88.092C36.3727 93.5344 32.4979 98.1963 27.6247 100.705C25.6025 101.747 25.3773 101.799 22.9084 101.776C20.5893 101.755 20.1434 101.662 18.6613 100.882ZM26.4467 93.7535C30.003 91.8684 33.195 87.3861 34.2025 82.8607C35.1553 78.5607 35.0754 73.4515 33.9378 66.2012C33.701 64.7113 33.4399 63.0139 33.3484 62.4275C33.2578 61.8411 33.0326 61.3597 32.8478 61.3597C31.6474 61.3597 25.3522 69.2907 23.4655 73.1785C21.5968 77.0312 20.6494 80.2949 20.1972 84.4386C19.7415 88.6075 20.6037 92.6058 22.2535 93.9987C23.287 94.8671 24.4784 94.7989 26.4467 93.7535ZM77.3603 87.9295C78.4109 87.5909 79.2667 87.0296 80.2392 86.0417C80.9991 85.2666 81.6226 84.4584 81.6226 84.2446C81.6226 84.0309 81.7419 83.8575 81.8864 83.8575C82.3789 83.8575 83.6475 80.7987 83.8099 79.2207C84.1517 75.8978 83.3523 74.5848 80.2051 73.3033C78.2368 72.5031 72.7382 71.4694 71.8815 71.7397C71.685 71.8026 70.1347 71.9364 68.4392 72.0361C66.7436 72.1358 65.2077 72.2642 65.0255 72.3181C64.8434 72.372 64.3374 72.4977 63.9023 72.5947C63.1622 72.7564 63.1227 72.839 63.3012 73.8017C63.5094 74.9126 66.4053 80.7053 67.6909 82.576C68.8375 84.25 71.8617 87.2092 72.8997 87.6735C74.8627 88.5536 75.3462 88.5815 77.3603 87.9295ZM131.651 58.1562C133.446 48.7236 133.54 39.7994 131.981 26.6164C131.711 24.3299 131.529 23.1705 130.826 19.2836C130.664 18.3837 130.459 17.1704 130.371 16.5893C130.197 15.4362 129.509 14.5821 129.307 15.2656C129.026 16.2139 128.55 18.9935 128.266 21.3483C127.928 24.162 127.95 36.9713 128.3 39.6198C128.419 40.534 128.601 42.1802 128.704 43.2759C129.028 46.7137 129.777 52.4803 130.257 55.2374C130.419 56.1768 130.632 57.5554 130.732 58.2981C130.829 59.0417 131.014 59.6515 131.139 59.6515C131.264 59.6515 131.495 58.9789 131.651 58.1562ZM60.6188 32.3696C60.6699 32.2438 61.9277 31.1221 63.4152 29.8774C64.9008 28.6326 68.1234 25.6115 70.5726 23.1624C74.5047 19.2324 75.776 17.7569 76.9539 15.755C77.1244 15.4676 77.4572 15.0033 77.6932 14.7303C78.8684 13.3661 80.7946 8.9287 80.8601 7.43699L80.9112 6.25511L79.5 6.32875C78.7231 6.37186 77.9614 6.53082 77.8071 6.68529C77.651 6.84156 77.2984 6.96639 77.0221 6.96639C75.4548 6.96639 70.5385 10.9108 68.1548 14.0864C66.1183 16.795 65.6428 17.5665 64.1212 20.6361C62.5566 23.7947 61.4729 26.6937 60.7157 29.749C60.4627 30.7683 60.1891 31.8253 60.1101 32.0983C59.9675 32.5824 60.4286 32.8276 60.6188 32.3696ZM31.8466 27.8324C32.2333 27.5621 32.7428 27.1858 32.9761 26.9954C33.2094 26.8041 34.2366 26.0327 35.2522 25.281C38.5743 22.8265 42.9586 18.7627 43.6386 17.509C44.682 15.5898 45.1772 14.4169 45.2597 13.6589C45.345 12.8901 45.2651 12.8102 44.2128 12.6252C40.347 11.9391 36.2049 12.6962 34.2734 14.442C33.9719 14.7159 33.622 14.9405 33.4964 14.9405C33.2345 14.9405 31.8897 17.518 31.4878 18.7825C30.413 22.1799 30.0514 28.3255 30.9279 28.3255C31.0446 28.3255 31.4599 28.1028 31.8466 27.8324ZM238.638 98.1963C237.925 98.0024 237.316 96.6552 237.114 94.8213C237.012 93.8819 236.787 92.1504 236.619 90.9766C236.101 87.3861 235.967 87.2972 235.543 90.2824C235.182 92.8276 234.163 94.9094 232.647 96.208C231.57 97.1339 231.271 97.2417 229.828 97.2417C228.619 97.2417 227.979 97.08 227.282 96.6013C226.391 95.9889 225.1 94.0499 224.899 93.027C224.844 92.7593 224.727 92.3525 224.639 92.1163C224.551 91.8792 224.415 91.37 224.335 90.9766C224.258 90.5842 223.917 89.2398 223.578 87.9869C223.24 86.7341 222.898 85.3897 222.822 84.9963C222.745 84.6039 222.577 84.0282 222.452 83.7148C222.324 83.4013 222.062 82.5706 221.865 81.8638C221.55 80.7277 221.058 79.1184 220.159 76.2912C220.006 75.8098 219.88 75.2117 219.88 74.9638C219.88 74.716 219.635 74.0209 219.334 73.4173C219.035 72.8165 218.716 72.0936 218.626 71.8116C218.48 71.3473 218.15 71.3068 215.26 71.4065C213.5 71.464 211.633 71.3984 211.115 71.2583C210.236 71.0222 210.102 71.0877 209.064 72.2355C208.455 72.9108 207.949 73.6077 207.944 73.7847C207.937 73.9616 207.733 74.2687 207.49 74.4708C207.249 74.6729 206.797 75.3626 206.487 76.0002C206.173 76.6415 205.673 77.5494 205.371 78.0191C205.07 78.4897 204.558 79.386 204.234 80.0129C203.909 80.6397 203.397 81.536 203.095 82.0066C202.794 82.4763 202.293 83.3843 201.98 84.0255C201.671 84.6631 201.218 85.3529 200.976 85.5549C200.734 85.757 200.535 86.0785 200.535 86.2698C200.535 86.4602 200.279 86.8473 199.966 87.132C199.653 87.4176 199.397 87.7903 199.397 87.9636C199.397 88.6533 196.009 92.0139 194.667 92.6543C193.904 93.0189 193.059 93.432 192.786 93.5712C192.052 93.9502 188.883 93.8532 187.663 93.4176C186.03 92.8366 184.712 91.6888 183.367 89.6843L182.146 87.8612L179.52 89.1374C178.076 89.8406 176.551 90.4612 176.126 90.5159C175.706 90.5725 175.103 90.7288 174.79 90.8626C174.477 90.9964 172.363 91.1078 170.096 91.1051C166.048 91.1051 165.908 91.0826 162.591 89.9717C158.492 88.5994 157.172 87.5567 156.853 85.4355C156.594 83.7067 156.85 82.5535 157.761 81.36C159.414 79.1866 161.63 79.0447 165.322 80.8669C166.838 81.6159 168.685 82.2823 169.766 82.4709C172.798 82.9999 176.34 82.4844 178.949 81.1346C179.845 80.6712 179.916 80.2688 179.475 78.1619C178.949 75.6473 178.346 70.6207 178.346 68.7644C178.346 61.9551 181.378 57.9254 186.229 58.29C190.479 58.6089 193.708 62.1114 193.708 66.406C193.708 69.4676 190.718 78.0595 188.499 81.3681C187.042 83.5441 187.046 83.8513 188.504 85.5576C189.821 87.1014 190.046 87.0323 193.227 84.1422C194.004 83.4363 195.5 81.7048 196.553 80.2949C197.605 78.8822 198.675 77.5521 198.931 77.3384C199.187 77.1282 199.397 76.8372 199.397 76.6953C199.397 76.5525 200.037 75.6105 200.819 74.6019C201.602 73.5943 202.242 72.6854 202.242 72.5857C202.242 72.4887 202.595 71.8735 203.027 71.2278C203.457 70.5785 204.234 69.2143 204.749 68.1941C205.264 67.1748 205.838 66.1384 206.025 65.8878C206.808 64.8487 208.265 64.4329 212.031 64.1851C214.079 64.0485 216.523 63.7522 217.462 63.5241C218.688 63.2277 219.547 63.1828 220.512 63.3642C221.872 63.6237 224.002 64.7832 224.637 65.6058C225.308 66.4859 226.522 69.1766 226.762 70.3163C227.132 72.0963 227.552 74.4825 227.717 75.7416C227.8 76.3675 227.939 77.1363 228.03 77.4497C228.227 78.1448 228.616 80.8157 228.872 83.2163C229.146 85.7965 229.612 85.5379 230.144 82.505C230.289 81.6815 230.534 80.2724 230.688 79.3725C231.535 74.4483 232.383 59.9021 232.394 50.1534L232.397 47.6334L230.619 47.8301C228.065 48.1094 222.753 49.0999 220.591 49.7008C216.25 50.9051 214.987 50.7776 213.177 48.9374C211.951 47.6936 211.914 47.6046 211.914 45.8561C211.914 41.2058 214.233 40.2664 226.707 39.8533C229.6 39.7563 232.098 39.5515 232.255 39.398C232.437 39.2157 232.539 34.2088 232.539 25.5316C232.539 16.954 232.644 11.7936 232.824 11.5233C232.98 11.2871 233.461 10.9135 233.891 10.6916C234.565 10.3441 234.775 10.3441 235.427 10.6916C236.869 11.4631 236.946 12.0756 236.983 23.2621C237.003 28.9434 237.1 34.9381 237.197 36.578L237.376 39.5623L243.207 39.4743C254.737 39.301 262.524 38.8564 266.392 38.1505C269.542 37.5748 270.358 37.6117 271.217 38.3634C271.778 38.8537 271.96 39.301 271.994 40.2601C272.031 41.3199 271.914 41.6135 271.24 42.1515C270.541 42.7092 270.009 42.8035 266.712 42.9463C262.293 43.1367 260.029 43.3361 258.285 43.6863C257.582 43.8291 255.981 44.0904 254.728 44.2647C253.477 44.4407 251.813 44.7002 251.03 44.8457C250.248 44.9876 249.031 45.1699 248.328 45.2472C246.635 45.4376 239.304 46.5144 238.258 46.7308L237.433 46.9014L237.629 53.4889C238.132 70.4357 239.407 84.7889 241.096 92.498C241.953 96.402 241.95 96.8322 241.068 97.6494C240.328 98.3355 239.689 98.4783 238.638 98.1963Z" fill="white"/>
</svg>
