<svg width="894" height="574" viewBox="0 0 894 574" fill="none" xmlns="http://www.w3.org/2000/svg">
<path d="M280.814 332.581C293.182 332.873 303.94 337.158 311.219 344.182C318.793 351.492 322.461 361.68 320.098 372.707L320.097 372.708C319.029 377.678 316.87 382.04 312.251 387.839C308.288 392.815 302.382 399.012 293.561 407.724L289.599 411.616L270.043 430.738L270.488 444.756V444.759C270.741 452.907 271.161 461.746 271.438 465.221L271.491 465.843L271.493 465.855C271.632 467.378 271.818 469.389 272.006 471.405C272.193 473.418 272.382 475.438 272.521 476.971C272.796 479.985 273.431 485.999 273.929 490.306C274.307 493.573 274.846 498.63 275.292 503L275.697 507.051V507.055C276.158 511.823 276.468 515.219 276.771 517.753C277.082 520.345 277.348 521.667 277.616 522.425C277.8 522.946 277.897 522.983 278.015 523.069C278.243 523.236 278.501 523.381 278.921 523.594L280.805 524.528L280.809 524.53C287.854 528.056 290.313 529.425 292.768 531.647H292.769C293.081 531.928 293.398 532.171 293.632 532.329C293.824 532.382 293.954 532.428 293.992 532.442C294.244 532.532 294.482 532.637 294.675 532.726C295.069 532.909 295.517 533.142 295.969 533.391C296.656 533.77 297.462 534.244 298.302 534.764L299.149 535.297L299.151 535.298C307.594 540.7 314.21 543.732 320.436 544.981C326.584 546.215 332.668 545.772 340.151 543.689L340.153 543.688C342.721 542.974 345.521 541.966 346.597 541.459L346.788 541.365C348.371 540.531 350.782 539.642 352.446 539.292L352.688 539.227C353.355 539.018 354.731 538.412 356.799 537.255C359.008 536.02 361.634 534.374 364.323 532.546C369.782 528.838 375.115 524.648 377.686 521.9C384.156 514.981 388.242 509.395 390.384 504.79C392.485 500.27 392.573 497.023 391.58 494.392L391.579 494.388C390.802 492.321 389.842 491.3 388.051 490.574C385.866 489.688 382.319 489.208 376.169 489.208C363.631 489.208 352.028 492.258 338.557 499.26L338.558 499.261C327.763 504.877 322.742 508.435 314.305 516.43L314.304 516.429C311.973 518.64 309.64 520.682 307.74 522.199C306.797 522.952 305.909 523.618 305.151 524.119C304.778 524.366 304.369 524.617 303.962 524.824C303.71 524.951 302.897 525.369 301.889 525.43L301.888 525.429C297.971 525.671 294.201 525.128 291.351 522.941C288.319 520.615 287.186 517.117 287.186 513.416C287.186 511.569 287.338 509.754 288.216 507.879C289.035 506.13 290.339 504.661 291.825 503.137C294.007 500.895 298.838 497.032 302.63 494.419C306.309 491.878 312.748 487.393 316.937 484.453C335.319 471.546 346.075 465.601 359.291 461.31H359.293C362.807 460.17 365.44 459.437 368.391 459.024C371.301 458.616 374.384 458.539 378.77 458.558H378.776C383.555 458.585 386.61 458.612 389.236 459.147C392.017 459.713 394.198 460.819 397.265 462.402H397.266C401.231 464.445 405.155 467.319 408.372 470.344C411.517 473.302 414.329 476.728 415.666 479.983H415.665C416.827 482.804 417.552 486.648 417.881 490.305C418.212 493.983 418.186 497.943 417.59 501.051L417.589 501.054C417.466 501.691 417.376 502.18 417.311 502.568C418.877 503.414 420.772 504.844 422.038 506.126C424.529 502.395 425.441 500.425 428.397 491.925C430.692 485.323 431.243 482.321 431.692 473.272L431.796 471.248C432.036 466.716 432.299 463.497 433.172 460.965C434.306 457.676 436.382 455.716 438.867 453.413L439.067 453.232C441.161 451.395 444.043 450.503 446.605 450.199C449.316 449.877 452.392 450.122 455.028 451.245L455.03 451.246C457.041 452.103 458.988 453.122 460.69 454.705C462.429 456.321 463.686 458.311 464.682 460.801C466.562 465.506 467.758 472.723 469.348 484.189H469.349C469.782 487.277 470.428 491.263 470.883 493.664L471.065 494.588V494.592C471.131 494.91 471.197 495.243 471.268 495.586C471.393 493.773 471.512 491.836 471.623 489.781V489.779C472.15 480.113 472.575 474.103 473.816 470.027C474.489 467.819 475.43 466.033 476.798 464.454C478.101 462.948 479.666 461.783 481.276 460.677L481.283 460.673C483.877 458.901 487.564 457.943 490.598 457.626C492.168 457.463 493.805 457.443 495.28 457.663C496.492 457.843 498.568 458.315 499.974 459.951C501.054 460.104 501.892 460.586 502.395 460.929C503.065 461.386 503.646 461.949 504.129 462.483C505.102 463.559 506.057 464.95 506.934 466.433C508.589 469.234 510.23 472.822 511.377 476.386L511.6 477.099L511.601 477.1C513.412 483.08 515.79 493.985 517.242 502.867L517.243 502.873C517.337 503.451 517.484 503.994 517.62 504.366C518.353 505.109 518.738 505.953 518.925 506.436C519.244 507.263 519.436 508.214 519.436 509.172C519.436 509.084 519.457 509.446 519.785 510.358C519.92 510.732 520.084 511.134 520.267 511.546C521.115 508.919 522.092 505.067 523.277 499.639C524.408 494.453 524.751 489.43 524.613 477.846L524.563 473.098C524.534 468.837 524.575 465.96 524.785 463.806C525.099 460.591 525.808 458.801 526.936 456.56L527.212 456.027C528.621 453.39 530.467 451.209 532.951 449.704C535.594 448.102 538.606 447.478 541.858 447.489H541.859C544.667 447.498 547.053 447.665 549.197 448.335C551.339 449.005 552.979 450.089 554.529 451.483L554.839 451.766L554.842 451.769C557.932 454.653 560.023 457.359 561.57 462.043C563.001 466.375 563.974 472.43 565.242 481.898H565.241C567.273 497.042 569.022 505.285 571.064 510.329L571.508 509.412C573.591 505.08 576.245 499.478 577.386 496.979L577.811 496.058C582.262 486.573 588.263 477.741 594.832 470.629C601.565 463.341 609.135 457.599 616.507 455.013L616.51 455.012C625.028 452.031 636.499 451.079 647.594 451.738C658.689 452.397 669.981 454.701 678.119 458.666L678.122 458.667C683.359 461.222 687.441 464.253 690.306 468.39C693.172 472.53 694.56 477.404 695.076 483.182L695.137 483.91C695.715 491.364 694.676 496.838 691.39 504.082L691.387 504.086C690.835 505.297 690.156 506.537 689.492 507.586C688.916 508.496 688.08 509.705 687.16 510.473C687.152 510.48 687.123 510.506 687.084 510.551C686.942 511.319 686.64 511.892 686.517 512.122C686.275 512.572 685.983 512.997 685.713 513.36C685.164 514.096 684.439 514.926 683.642 515.78C682.03 517.506 679.853 519.612 677.488 521.765C672.797 526.037 667.042 530.794 663.084 533.355L663.083 533.354C653.686 539.439 641.397 546.536 634.332 549.949L634.331 549.95C630.496 551.8 626.821 552.951 623.319 552.591C619.543 552.203 616.707 550.155 614.485 547.247V547.246C613.4 545.825 612.415 544.35 611.933 542.479C611.463 540.656 611.574 538.845 611.78 536.993L611.781 536.984C611.938 535.606 612.114 533.928 612.686 532.416C613.359 530.639 614.478 529.266 616.091 528.105C617.55 527.055 619.451 526.154 621.75 525.206C624.093 524.239 627.159 523.1 631.103 521.641C633.135 520.885 636.046 519.16 639.52 516.5C642.939 513.88 646.705 510.508 650.429 506.66L650.431 506.658C653.863 503.114 655.59 501.234 656.916 499.368C658.215 497.539 659.203 495.619 660.968 491.849L660.97 491.844C662.029 489.59 663.356 486.877 663.946 485.824C664.176 485.41 664.274 485.115 664.313 484.931C664.35 484.76 664.339 484.682 664.336 484.666C664.333 484.652 664.324 484.601 664.256 484.498C664.18 484.383 664.02 484.187 663.701 483.933C662.242 482.77 658.912 481.478 652.93 480.606H652.928C649.723 480.137 647.865 479.965 646.033 480.031C644.182 480.098 642.196 480.413 638.737 481.121C629.311 483.065 620.912 487.492 616.652 492.245C612.256 497.165 610.667 500.349 603.428 522.125C599.602 533.634 595.804 541.884 590.837 547.228C585.586 552.877 579.332 554.979 571.638 554.979C561.437 554.979 552.952 548.454 547.65 538.176C546.306 540.149 544.615 542.08 542.847 543.779C540.236 546.287 537.125 548.613 534.152 549.93H534.151C520.517 555.964 506.105 550.047 496.795 536.708C496.448 537.443 496.078 538.201 495.691 538.957C494.06 542.148 491.932 545.82 490.294 547.758L490.295 547.759C487.622 550.928 484.032 553.23 480.365 554.432C476.756 555.616 472.607 555.873 469.034 554.25L469.024 554.247L469.016 554.242C468.338 553.93 467.516 553.605 466.751 553.341C465.938 553.06 465.408 552.925 465.244 552.897L465 552.85C463.798 552.587 462.863 551.91 462.396 551.55C461.759 551.06 461.129 550.461 460.546 549.852C459.37 548.624 458.11 547.065 456.965 545.485C455.817 543.901 454.711 542.196 453.869 540.648C453.45 539.877 453.063 539.084 452.769 538.325C452.508 537.652 452.176 536.653 452.158 535.584V535.568L452.157 535.563C451.486 534.885 451.088 534.123 450.866 533.599C450.618 533.014 450.433 532.356 450.342 531.667C449.249 533.333 447.866 535.042 446.438 536.593C444.281 538.939 441.724 541.252 439.335 542.818C436.781 544.492 433.084 545.559 429.486 546.141C425.789 546.739 421.668 546.91 417.984 546.464V546.465C410.582 545.577 403.396 542.498 397.466 537.708L396.74 537.134C396.393 536.865 396.056 536.613 395.741 536.382C395.477 536.611 395.188 536.861 394.879 537.134C393.1 538.707 390.718 540.896 388.173 543.317L388.171 543.319C382.989 548.238 376.197 554.058 372.995 556.233L372.99 556.237C371.585 557.188 370.257 558.148 369.263 558.917C368.762 559.305 368.379 559.619 368.125 559.842C368.059 559.9 368.01 559.945 367.977 559.977C367.607 560.46 367.212 560.794 367.03 560.944C366.716 561.203 366.37 561.449 366.04 561.669C365.374 562.114 364.543 562.606 363.639 563.112C361.817 564.131 359.471 565.33 357.031 566.505C352.267 568.801 346.64 571.254 343.684 572.059L343.68 572.06C340.253 572.989 334.644 573.593 329.364 573.853C324.101 574.112 318.505 574.062 315.124 573.452L315.121 573.451C310.808 572.669 304.119 570.715 297.773 568.56C291.441 566.41 285.045 563.922 281.374 561.981L281.372 561.98C278.168 560.284 274.591 558.592 272.904 557.914C269.179 566.256 259.444 571.333 250.256 570.069V570.068C247.212 569.65 244.127 568.009 241.546 566.034C238.904 564.012 236.411 561.353 234.626 558.423L234.622 558.417C233.827 557.106 233.369 555.499 233.084 554.044C232.784 552.513 232.611 550.805 232.55 549.078C232.429 545.67 232.731 541.806 233.605 538.675C234.677 534.817 237.87 531.074 241.36 528.136C244.62 525.392 248.638 522.931 252.765 521.357C252.882 519.376 252.786 515.644 252.53 508.265L252.401 504.902C252.065 496.905 251.512 488.13 251.096 484.244V484.243C249.595 470.47 248.441 461.195 247.475 455.384C247.354 454.661 247.237 454.001 247.126 453.402C245.401 455.111 243.298 457.227 241.06 459.516L241.061 459.517C233.537 467.221 227.537 474.173 223.281 480.013C218.92 485.999 216.731 490.369 216.24 492.993C214.98 499.745 211.478 505.374 205.844 508.251L205.839 508.253C197.316 512.593 187.364 510.574 181.092 503.31L181.091 503.309L177.718 499.4L176.674 498.19L176.751 496.594L177.131 488.72V488.715C177.42 482.867 178.009 478.587 180.773 473.624C183.362 468.976 187.807 463.845 195.101 455.843C198.189 452.451 205.348 445.915 212.181 439.992C215.631 437.001 219.061 434.112 221.938 431.788C224.722 429.539 227.23 427.619 228.72 426.748C229.264 426.429 230.386 425.638 231.048 425.083L231.056 425.075L231.064 425.068C232.046 424.252 235.168 421.994 237.936 420.071L237.937 420.069L241.223 417.788L241.098 414.934L241.097 414.931C240.976 412.154 240.616 404.055 240.301 396.918L240.251 395.711C239.294 370.461 243.935 351.901 255.711 341.538C259.472 338.227 262.805 335.868 266.669 334.417C270.533 332.967 274.597 332.55 279.613 332.565L280.814 332.581ZM315.834 569.515C316.015 569.548 316.206 569.579 316.404 569.608L315.834 569.514C315.583 569.469 315.323 569.419 315.054 569.365L315.834 569.515ZM262.583 563.585C262.647 563.547 262.711 563.508 262.774 563.469C262.711 563.508 262.647 563.547 262.583 563.585ZM263.199 563.201C263.244 563.171 263.288 563.141 263.333 563.112C263.288 563.141 263.244 563.171 263.199 563.201ZM263.637 562.905C263.701 562.86 263.766 562.815 263.83 562.769C263.766 562.815 263.701 562.86 263.637 562.905ZM264.208 562.491C264.234 562.471 264.261 562.454 264.286 562.434C264.322 562.406 264.357 562.376 264.393 562.348C264.331 562.396 264.27 562.444 264.208 562.491ZM364.849 557.481L364.91 557.399L364.899 557.412C364.879 557.437 364.863 557.46 364.849 557.481ZM273.689 553.934C273.896 554.006 274.143 554.1 274.426 554.213C274.143 554.099 273.896 554.005 273.689 553.933C273.508 553.87 273.338 553.811 273.178 553.757L273.689 553.934ZM571.637 550.978C571.606 550.978 571.575 550.977 571.545 550.977C571.575 550.977 571.606 550.979 571.637 550.979L571.638 550.978C571.639 550.978 571.641 550.977 571.643 550.977C571.641 550.977 571.638 550.978 571.637 550.978ZM324.825 549.585C325.473 549.627 326.123 549.651 326.775 549.66C326.558 549.657 326.341 549.651 326.124 549.645C325.69 549.632 325.257 549.612 324.825 549.584V549.585ZM482.918 548.864C482.96 548.838 483.001 548.813 483.043 548.787C483.001 548.813 482.96 548.838 482.918 548.864ZM337.03 548.572C337.163 548.544 337.296 548.516 337.43 548.487C337.296 548.516 337.163 548.544 337.03 548.572ZM483.395 548.561C483.426 548.54 483.459 548.521 483.49 548.5C483.5 548.494 483.509 548.486 483.52 548.479C483.478 548.507 483.436 548.534 483.395 548.561ZM483.901 548.216C484.012 548.139 484.121 548.059 484.229 547.979C484.121 548.059 484.012 548.139 483.901 548.216ZM339.276 548.054C339.345 548.037 339.414 548.019 339.483 548.001C339.414 548.019 339.345 548.037 339.276 548.054ZM484.945 547.424C484.731 547.6 484.512 547.77 484.29 547.935C484.362 547.881 484.435 547.83 484.507 547.775C484.639 547.674 484.769 547.57 484.898 547.464L484.945 547.424ZM528.614 547.617C528.774 547.577 528.933 547.535 529.092 547.492C528.933 547.535 528.774 547.577 528.614 547.617ZM529.194 547.464C529.308 547.433 529.421 547.401 529.534 547.368C529.421 547.401 529.308 547.433 529.194 547.464ZM532.532 546.272C531.588 546.69 530.636 547.039 529.679 547.325C530.448 547.096 531.214 546.827 531.975 546.512L532.532 546.273C532.678 546.208 532.825 546.138 532.974 546.067C532.825 546.138 532.678 546.207 532.532 546.272ZM487.237 545.179C487.145 545.288 487.051 545.394 486.956 545.5C487.05 545.394 487.146 545.289 487.237 545.18C487.32 545.083 487.404 544.978 487.491 544.868L487.237 545.179ZM617.664 544.819C617.734 544.91 617.806 544.998 617.876 545.086C617.805 544.998 617.734 544.909 617.664 544.818C617.538 544.654 617.419 544.495 617.307 544.341C617.419 544.495 617.538 544.654 617.664 544.819ZM418.461 542.494C418.664 542.518 418.869 542.54 419.076 542.56C418.869 542.54 418.664 542.517 418.461 542.493C418.254 542.468 418.047 542.441 417.84 542.413L418.461 542.494ZM385.417 540.417C384.794 541.009 384.149 541.612 383.492 542.217C383.809 541.925 384.124 541.633 384.435 541.343L385.417 540.418C385.598 540.247 385.779 540.077 385.958 539.908C385.779 540.077 385.598 540.246 385.417 540.417ZM615.935 535.982C615.872 536.427 615.815 536.908 615.755 537.435L615.882 536.369C615.899 536.237 615.917 536.108 615.935 535.982ZM389.882 536.255C389.722 536.401 389.56 536.548 389.396 536.698C389.56 536.548 389.722 536.401 389.882 536.255ZM456.157 535.518L456.165 535.654C456.166 535.659 456.166 535.665 456.167 535.67C456.161 535.617 456.158 535.566 456.157 535.517V535.518ZM391.662 534.646C391.489 534.8 391.313 534.96 391.132 535.123C391.313 534.96 391.489 534.8 391.662 534.646ZM392.981 533.482C392.652 533.768 392.296 534.082 391.917 534.419C392.296 534.082 392.652 533.768 392.981 533.482ZM292.684 532.166C292.671 532.165 292.659 532.163 292.646 532.163L292.436 532.157C292.521 532.157 292.603 532.161 292.684 532.166ZM275.535 526.208C275.559 526.226 275.584 526.244 275.608 526.262C275.584 526.244 275.559 526.226 275.535 526.208ZM378.969 526.251C379.116 526.114 379.262 525.981 379.401 525.847L379.422 525.827C379.275 525.967 379.123 526.107 378.969 526.251ZM275.337 526.047C275.38 526.084 275.424 526.12 275.469 526.156C275.424 526.12 275.38 526.084 275.337 526.047ZM275.182 525.91C275.223 525.948 275.266 525.986 275.31 526.024C275.266 525.986 275.223 525.948 275.182 525.91ZM275.048 525.78C275.074 525.806 275.1 525.832 275.127 525.858C275.1 525.832 275.074 525.806 275.048 525.78ZM274.957 525.688C274.961 525.693 274.966 525.697 274.971 525.702C274.924 525.653 274.878 525.603 274.834 525.551L274.957 525.688ZM473.446 511.959C473.403 512.168 473.36 512.369 473.316 512.561V512.562C473.404 512.178 473.49 511.76 473.575 511.309V511.308C473.533 511.534 473.489 511.751 473.446 511.959ZM683.117 509.952C683.089 510.034 683.046 510.127 682.99 510.231C683.018 510.179 683.043 510.129 683.064 510.083L683.117 509.952ZM419.442 509.199C419.382 509.132 419.318 509.063 419.251 508.994C419.228 508.97 419.204 508.947 419.181 508.923C419.274 509.017 419.361 509.109 419.442 509.199ZM418.155 507.994C418.515 508.293 418.85 508.593 419.135 508.877C419.032 508.775 418.923 508.669 418.809 508.563C418.606 508.375 418.385 508.185 418.155 507.994ZM417.562 507.52C417.662 507.597 417.761 507.675 417.858 507.752C417.761 507.675 417.662 507.597 417.562 507.52ZM684.442 507.539C684.377 507.599 684.313 507.661 684.251 507.725C684.313 507.661 684.377 507.599 684.442 507.539ZM271.716 507.44L271.421 504.476C271.404 504.313 271.387 504.149 271.37 503.984C271.496 505.222 271.614 506.394 271.716 507.44ZM684.632 507.371C684.667 507.34 684.704 507.307 684.741 507.271L684.751 507.261C684.71 507.301 684.67 507.337 684.632 507.371ZM417.185 507.236C417.131 507.196 417.077 507.157 417.022 507.118C417.077 507.157 417.131 507.196 417.185 507.236ZM514.53 506.979C514.558 507.004 514.584 507.025 514.61 507.042H514.611C514.585 507.025 514.558 507.004 514.53 506.979ZM514.448 506.892C514.467 506.915 514.486 506.935 514.505 506.954C514.486 506.935 514.467 506.915 514.448 506.892ZM514.315 506.708C514.353 506.767 514.39 506.82 514.427 506.867C514.39 506.82 514.353 506.767 514.315 506.708ZM514.18 506.471C514.195 506.501 514.21 506.529 514.226 506.557C514.21 506.529 514.195 506.501 514.18 506.471ZM202.679 505.3C202.749 505.272 202.818 505.243 202.888 505.213C202.818 505.243 202.749 505.272 202.679 505.3ZM203.217 505.07C203.27 505.046 203.325 505.026 203.378 505.001L203.47 504.957C203.386 504.996 203.301 505.032 203.217 505.07ZM413.188 503.455C413.186 503.564 413.187 503.667 413.192 503.764C413.187 503.667 413.186 503.563 413.188 503.454V503.455ZM207.927 501.689C207.721 501.915 207.51 502.132 207.293 502.342L207.614 502.022C207.72 501.913 207.824 501.802 207.927 501.689ZM396.083 499.631C396.09 499.572 396.096 499.513 396.103 499.455C396.096 499.513 396.09 499.572 396.083 499.631ZM396.134 499.137C396.139 499.079 396.143 499.021 396.147 498.962C396.143 499.021 396.139 499.079 396.134 499.137ZM396.19 498.06C396.191 498.014 396.192 497.968 396.192 497.922C396.192 497.968 396.191 498.014 396.19 498.06ZM396.191 497.596C396.191 497.548 396.19 497.5 396.188 497.453C396.19 497.5 396.191 497.548 396.191 497.596ZM396.14 496.568C396.136 496.524 396.132 496.48 396.128 496.436C396.132 496.48 396.136 496.524 396.14 496.568ZM395.178 492.612C395.227 492.733 395.275 492.855 395.322 492.98C395.415 493.225 395.5 493.472 395.578 493.721C395.656 493.971 395.727 494.222 395.79 494.475H395.791C395.664 493.969 395.508 493.47 395.322 492.979C395.275 492.854 395.227 492.732 395.178 492.611V492.612ZM214.311 486.79C213.645 488.123 213.128 489.356 212.767 490.482C212.847 490.232 212.936 489.977 213.031 489.716C213.366 488.804 213.793 487.827 214.311 486.79H214.311ZM528.487 490.038H528.488C528.51 489.593 528.527 489.136 528.544 488.666C528.527 489.136 528.509 489.593 528.487 490.038ZM528.554 488.383C528.566 488.015 528.575 487.638 528.585 487.252C528.575 487.638 528.566 488.015 528.554 488.383ZM528.595 486.892C528.605 486.428 528.614 485.951 528.621 485.46C528.614 485.951 528.605 486.428 528.595 486.892ZM397.562 467.144C397.974 467.39 398.384 467.644 398.792 467.907L398.125 467.485C397.938 467.369 397.75 467.256 397.562 467.144ZM483.54 463.975C483.15 464.242 482.783 464.501 482.436 464.755L482.972 464.371C483.156 464.241 483.345 464.109 483.54 463.975ZM619.335 458.293C619.078 458.372 618.825 458.453 618.574 458.536C619.076 458.371 619.589 458.214 620.112 458.063L619.335 458.293ZM266.722 451.448C266.731 451.684 266.741 451.919 266.751 452.153C266.736 451.784 266.721 451.413 266.706 451.041L266.722 451.448ZM246.839 448.085C246.669 448.248 246.492 448.423 246.305 448.605C246.593 448.325 246.861 448.066 247.106 447.832L246.839 448.085ZM619.218 373.337C621.394 372.764 623.367 372.909 625.561 373.155H625.563C627.693 373.396 629.652 373.726 631.536 374.736C633.376 375.722 634.81 377.181 636.323 378.862H636.324C637.792 380.491 639.033 382.023 639.817 383.784C640.655 385.663 640.827 387.46 640.827 389.339C640.827 393.092 640.286 396.394 638.305 399.503C636.419 402.463 633.48 404.836 629.678 407.356C621.496 412.779 613.286 419.302 604.885 427.062C600.591 431.032 597.681 433.61 595.005 435.198C592.042 436.955 589.484 437.442 586.274 437.791L586.273 437.79C584.181 438.019 582.341 438.121 580.621 437.858C578.758 437.573 577.291 436.904 575.859 436.006L575.848 436C573.074 434.246 570.601 431.909 568.708 429.395C566.843 426.918 565.359 424.021 564.89 421.098L564.889 421.093C564.29 417.33 565.269 413.248 566.952 409.75C568.655 406.212 571.289 402.823 574.569 400.499C584.122 393.726 593.979 387.289 600.561 383.539C604.362 381.371 609.917 378.142 612.873 376.38L612.876 376.378C615.246 374.968 617.188 373.872 619.218 373.337ZM577.984 432.619C578.192 432.749 578.394 432.869 578.594 432.979C578.394 432.868 578.192 432.748 577.984 432.618C577.838 432.525 577.692 432.431 577.548 432.334L577.984 432.619ZM227.987 432.122C227.75 432.301 227.504 432.488 227.249 432.685C227.504 432.488 227.75 432.301 227.987 432.122ZM228.82 431.501C228.654 431.623 228.481 431.752 228.302 431.885C228.481 431.752 228.654 431.623 228.82 431.501ZM229.574 430.961C229.388 431.091 229.192 431.232 228.984 431.382C229.192 431.232 229.388 431.091 229.574 430.961ZM575.456 430.752C575.523 430.809 575.591 430.864 575.658 430.92C575.547 430.828 575.437 430.734 575.328 430.64C575.371 430.677 575.413 430.716 575.456 430.752ZM229.675 430.891C229.665 430.898 229.655 430.905 229.645 430.912C229.86 430.762 230.061 430.627 230.245 430.507L229.675 430.891ZM575.06 430.407C575.098 430.441 575.137 430.474 575.175 430.507C575.05 430.398 574.926 430.287 574.804 430.174C574.889 430.252 574.973 430.33 575.06 430.407ZM596.769 428.958C596.169 429.461 595.612 429.907 595.088 430.304C595.129 430.273 595.171 430.243 595.213 430.211C595.375 430.087 595.541 429.958 595.71 429.824C596.048 429.555 596.4 429.267 596.769 428.958ZM574.671 430.053C574.694 430.075 574.717 430.095 574.74 430.117C574.589 429.977 574.439 429.835 574.291 429.692L574.671 430.053ZM573.684 406.701C573.668 406.719 573.652 406.737 573.637 406.755C573.676 406.709 573.716 406.664 573.756 406.619C573.732 406.646 573.707 406.673 573.684 406.701ZM574.159 406.169C574.113 406.219 574.067 406.269 574.021 406.32C574.067 406.269 574.113 406.219 574.159 406.169ZM627.468 404.021C626.974 404.348 626.482 404.68 625.988 405.014L627.468 404.022C627.598 403.935 627.726 403.848 627.853 403.762C627.726 403.848 627.598 403.935 627.468 404.021ZM579.86 401.668C579.641 401.821 579.422 401.975 579.203 402.128C579.422 401.975 579.641 401.821 579.86 401.668ZM283.469 365.12C282.144 365.072 281.626 365.296 281.522 365.335C278.295 369.41 276.266 373.322 274.684 378.556C273.741 381.7 272.593 387.79 271.811 393.23C271.727 393.818 271.648 394.394 271.574 394.952C276.289 391.167 280.964 386.311 284.645 381.558C286.691 378.915 288.38 376.37 289.584 374.129C290.827 371.817 291.395 370.117 291.509 369.095L291.666 367.666L289.773 366.791L289.77 366.789C287.439 365.707 285.179 365.181 283.469 365.12ZM636.816 390.087C636.817 390.045 636.82 390.002 636.821 389.958L636.827 389.339L636.826 389.338C636.826 389.593 636.822 389.843 636.816 390.087ZM616.582 378.848C616.079 379.132 615.53 379.454 614.921 379.816L615.792 379.302C616.068 379.141 616.331 378.99 616.582 378.848ZM619.434 377.458C619.342 377.492 619.25 377.527 619.157 377.564C618.97 377.638 618.779 377.72 618.581 377.81V377.811C618.878 377.676 619.16 377.559 619.434 377.458ZM294.783 372.338C294.714 372.531 294.643 372.727 294.564 372.925L294.723 372.512C294.744 372.454 294.763 372.396 294.783 372.338ZM295.028 371.606C295.045 371.553 295.061 371.501 295.076 371.449C295.061 371.501 295.045 371.553 295.028 371.606ZM295.173 371.105C295.181 371.073 295.191 371.042 295.199 371.01C295.191 371.042 295.181 371.073 295.173 371.105ZM288.385 361.98V361.979V361.98ZM280.863 361.36C280.749 361.388 280.638 361.418 280.529 361.451C280.638 361.418 280.75 361.388 280.864 361.36C280.979 361.332 281.095 361.306 281.215 361.283C281.095 361.306 280.978 361.332 280.863 361.36ZM260.496 0.00341797C264.799 -0.0148642 267.716 0.0325711 270.092 0.410645C272.677 0.822236 274.513 1.60423 276.697 2.72119L276.701 2.72314C279.631 4.22595 283.405 7.19349 285.37 9.61963H285.369C286.742 11.3112 287.982 12.9024 288.593 15.3745C288.984 16.958 289.093 18.8391 289.127 21.2222L289.144 23.7808V23.7827C289.148 26.1492 289.026 28.5709 288.82 30.5942C288.718 31.6035 288.589 32.5592 288.435 33.3833C288.3 34.0987 288.086 35.072 287.691 35.8911C284.86 41.8016 282.981 45.6267 281.617 48.147C280.3 50.581 279.241 52.2371 277.948 53.3989L277.947 53.3979C277.719 53.6038 277.519 53.8236 277.379 53.9976C277.317 54.1995 277.252 54.3738 277.2 54.4995C277.086 54.7762 276.951 55.0489 276.83 55.2827C276.581 55.7623 276.254 56.3325 275.891 56.9351C275.339 57.8487 274.643 58.9395 273.876 60.0894L273.087 61.2554C265.766 71.9216 248.8 90.1652 234.941 102.381V102.382C227.429 109.003 219.161 116.285 216.553 118.586L216.554 118.587C213.908 120.93 208.778 125.264 205.139 128.24L205.138 128.239L199.881 132.558L198.945 143.094L198.946 143.095C197.643 157.845 197.627 164.827 198.765 174.007H198.764C199.268 178.066 199.895 183.914 200.151 187.046C200.402 189.994 201.038 195.102 201.553 198.334C202.091 201.656 202.77 206.046 203.063 208.125C203.186 208.963 203.373 209.796 203.561 210.429C203.632 210.672 203.696 210.851 203.742 210.969C204.129 211.487 204.362 211.998 204.495 212.325C204.698 212.822 204.847 213.338 204.956 213.815C205.174 214.768 205.3 215.855 205.3 216.908C205.3 217.155 205.364 217.592 205.519 218.058C205.527 218.084 205.538 218.109 205.547 218.133C205.581 218.124 205.617 218.117 205.653 218.107C206.372 217.912 207.329 217.614 208.694 217.175L208.698 217.174C222.467 212.767 236.282 210.413 248.541 210.187C260.709 209.963 271.743 211.83 279.646 216.251C292.413 223.394 300.63 235.481 302.77 250.198L302.933 251.352C303.289 253.969 303.471 256.072 303.392 258.252C303.301 260.735 302.876 263.152 302.186 266.378V266.38C301.257 270.709 299.222 277.293 297.617 281.191C297.597 281.24 297.578 281.29 297.558 281.338C299.029 281.198 300.67 281.115 302.277 281.115C307.958 281.115 312.441 279.574 316.99 276.031C317.509 275.625 318.499 274.859 319.676 273.952L323.5 271.01C324.574 270.182 325.771 269.076 326.806 267.97C327.895 266.806 328.571 265.891 328.804 265.458L328.807 265.452C329.712 263.77 329.583 263.865 329.568 263.625C329.513 262.684 329.084 261.07 327.776 256.461L327.775 256.458C325.282 247.645 323.293 238.234 322.064 229.947C320.855 221.785 320.32 214.312 320.95 209.563V209.56C322.362 198.991 327.145 189.672 334.823 185.664H334.824C337.735 184.144 341.149 183.359 344.384 183.229C347.583 183.101 350.989 183.6 353.783 185.041C366.447 191.549 372.985 205.957 373.015 223.459V223.461C373.034 239.245 370.186 254.368 364.606 267.951L364.604 267.956L362.903 272.079L363.817 273.797L363.822 273.806C364.845 275.741 366.963 278.411 369.299 280.745C370.442 281.887 371.553 282.863 372.497 283.568C373.296 284.165 373.763 284.406 373.92 284.482L373.974 284.51L373.987 284.513L374.001 284.517C374.212 284.57 374.352 284.592 374.436 284.603C374.53 284.54 374.704 284.411 374.974 284.159L374.975 284.158C375.709 283.47 376.525 282.83 377.29 282.335C377.669 282.09 378.102 281.838 378.554 281.631C378.675 281.576 378.875 281.487 379.134 281.398C379.17 281.367 379.211 281.335 379.255 281.297C379.749 280.874 380.457 280.22 381.339 279.37C383.089 277.682 385.366 275.376 387.679 272.96C389.989 270.547 392.306 268.055 394.137 266C395.054 264.972 395.83 264.072 396.417 263.359C396.711 263.002 396.942 262.71 397.111 262.484C397.205 262.359 397.264 262.275 397.298 262.226L397.33 262.179C398.05 260.918 400.769 256.799 403.304 253.08L403.306 253.079C404.584 251.205 405.815 249.356 406.768 247.891C407.244 247.158 407.645 246.532 407.941 246.054C408.28 245.508 408.385 245.313 408.37 245.344L408.379 245.326L408.388 245.308C408.826 244.431 410.403 241.625 411.887 239.091C415.145 233.499 417.061 229.612 417.984 226.82C418.915 224.008 418.6 223.018 418.435 222.683L418.43 222.674C417.605 220.998 416.865 217.925 416.579 215.69C416.056 211.663 415.661 208.96 415.308 207.066C414.949 205.146 414.673 204.285 414.47 203.826V203.825C414.06 202.902 413.735 201.617 413.499 200.51C413.241 199.301 413.011 197.921 412.865 196.634C412.617 194.433 411.99 190.143 411.464 187.151L411.462 187.142C408.704 171.244 405.335 143.586 403.918 125.163V125.162C403.454 119.168 402.823 101.772 402.508 86.4966L402.399 80.7739C401.948 53.4171 402.938 44.4172 407.976 33.8687L407.978 33.8657C410.001 29.6364 412.656 25.9413 415.498 23.3433C418.113 20.9525 421.828 18.6597 425.747 19.4302H425.746C426.396 19.5576 427.126 19.6771 427.764 19.7632C428.081 19.806 428.359 19.8381 428.579 19.8589C428.791 19.8789 428.891 19.8827 428.904 19.8833C430.887 19.8833 432.624 20.9526 433.641 21.6733C434.854 22.5334 436.059 23.6507 437.13 24.8208C438.208 25.9991 439.24 27.3275 440.071 28.6655C440.815 29.8619 441.548 31.3033 441.889 32.7905L441.951 33.0884L441.953 33.0972C442.22 34.5078 442.67 36.7792 443.079 38.7856L443.467 40.6626L443.468 40.6704L443.47 40.6782C443.956 43.0438 444.753 47.4697 445.243 50.5757C445.61 52.8616 446.165 56.2382 446.641 59.064L447.08 61.646V61.647C448.715 71.1243 450.347 83.7908 452.72 105.423C453.25 110.199 453.92 123.911 454.234 135.867C454.936 162.521 453.699 178.565 449.214 200.238C447.014 210.875 446.442 213.092 443.846 221.048L443.845 221.051C442.674 224.627 441.957 228.018 441.715 230.528C441.605 231.67 441.607 232.496 441.658 233.014C441.945 233.329 442.154 233.633 442.297 233.868C442.604 234.371 442.82 234.89 442.974 235.352C443.279 236.271 443.45 237.316 443.45 238.343C443.45 238.971 443.66 240.163 443.898 240.918L444.002 241.212L444.016 241.248C444.541 242.608 445.471 245.58 446.114 247.924L446.972 251.022C448.76 257.444 449.138 258.488 449.625 259.462H449.624C450.004 260.208 450.293 261.033 450.489 261.763C450.673 262.447 450.849 263.327 450.86 264.184C450.862 264.195 450.865 264.215 450.87 264.244C450.886 264.335 450.917 264.466 450.963 264.624C451.062 264.963 451.182 265.242 451.252 265.371C451.661 266.115 452.203 267.469 452.7 268.782C453.244 270.218 453.863 271.956 454.431 273.663C454.958 275.248 455.52 276.768 455.993 277.923C456.231 278.505 456.43 278.955 456.578 279.258C456.61 279.323 456.638 279.375 456.658 279.414C456.836 279.635 456.993 279.864 457.134 280.092C457.372 277.466 457.559 274.539 457.68 271.57C457.853 267.282 457.888 262.981 457.758 259.456C457.692 257.69 457.587 256.165 457.445 254.956C457.294 253.66 457.131 253.012 457.061 252.826L457.058 252.818C456.365 250.983 455.836 248.17 455.836 246.199C455.836 245.935 455.807 245.685 455.77 245.489C455.114 244.743 454.818 243.948 454.698 243.608C454.452 242.909 454.308 242.164 454.217 241.504C454.03 240.158 453.98 238.558 454.021 236.982C454.101 233.974 454.542 230.121 455.579 227.633L455.58 227.632C457.577 222.846 460.777 219.497 466.421 216.872C471.752 214.392 479.435 212.476 490.591 210.322C509.135 206.73 518.486 204.658 527.173 202.206L528.904 201.709C530.865 201.138 533.005 200.622 534.894 200.247C536.679 199.891 538.558 199.596 539.853 199.596C546.053 199.596 550.978 203.998 552.737 209.856L552.738 209.86C554.116 214.463 553.4 218.968 550.473 222.516C547.673 225.91 543.263 227.934 538.148 228.775H538.147C535.438 229.22 530.082 230.093 526.252 230.697C522.683 231.26 516.215 232.869 512.061 234.248L512.055 234.25C507.692 235.688 500.972 237.794 497.111 238.937C493.299 240.066 488.215 241.603 485.836 242.359L485.828 242.362L484.223 242.869V266.597C484.223 290.781 484.106 294.256 482.106 300.71C479.668 308.595 476.355 314.51 471.413 318.027C469.959 319.063 468.477 319.9 466.484 320.292C464.682 320.647 462.705 320.582 460.4 320.416V320.415C458.053 320.247 456.016 320.011 454.16 319.28C452.187 318.502 450.752 317.304 449.321 315.915V315.914C447.379 314.032 445.4 311.331 443.921 308.868C443.169 307.616 442.491 306.334 441.986 305.151C441.556 304.142 441.035 302.72 441.012 301.322C441.01 301.312 441.008 301.298 441.005 301.281C440.99 301.197 440.962 301.072 440.919 300.919C440.826 300.592 440.711 300.311 440.637 300.169L440.625 300.148L440.613 300.125C440.231 299.377 439.692 297.892 439.187 296.426C438.637 294.828 438 292.865 437.404 290.917L437.401 290.909C436.841 289.062 436.251 287.299 435.76 285.961C435.513 285.289 435.304 284.76 435.147 284.398C435.104 284.298 435.068 284.223 435.043 284.169C434.403 283.276 434.097 282.272 433.946 281.684C433.732 280.852 433.597 279.898 433.597 278.964C433.597 278.952 433.593 278.938 433.593 278.925C432.876 278.18 432.486 277.339 432.287 276.828C431.948 275.956 431.743 274.948 431.743 273.934C431.743 273.842 431.716 273.533 431.614 273.104C431.568 272.91 431.516 272.731 431.465 272.583C431.44 272.512 431.418 272.454 431.4 272.411C431.385 272.374 431.375 272.354 431.373 272.35L431.365 272.334L431.357 272.32C430.517 270.657 429.713 268.357 429.127 266.29C428.729 264.887 428.346 263.287 428.158 261.886C427.993 262.26 427.826 262.641 427.652 263.023C426.639 265.258 425.391 267.854 424.139 270.349C422.888 272.842 421.615 275.272 420.551 277.175C420.021 278.122 419.522 278.978 419.089 279.659C418.874 279.997 418.649 280.332 418.428 280.63C418.263 280.852 417.912 281.312 417.436 281.711L417.437 281.713C417.409 281.738 417.382 281.765 417.355 281.792C417.295 282.038 417.231 282.236 417.186 282.365C417.053 282.743 416.89 283.108 416.733 283.429C416.418 284.075 416.002 284.802 415.546 285.546C414.624 287.049 413.378 288.883 412.012 290.776C409.3 294.534 405.909 298.811 403.328 301.487L403.329 301.488C400.495 304.433 397.328 307.204 394.542 309.267C393.154 310.295 391.791 311.198 390.561 311.864C389.948 312.196 389.304 312.505 388.663 312.738C388.213 312.901 387.615 313.083 386.939 313.161C386.474 313.584 386.023 313.816 385.809 313.921C385.36 314.141 384.92 314.278 384.586 314.368C383.905 314.55 383.137 314.67 382.405 314.754C380.909 314.928 379.045 315.013 377.156 315.026C373.544 315.05 369.01 314.814 366.459 314.083C363.493 313.234 360.305 311.22 357.381 308.818C354.572 306.51 351.741 303.624 349.24 300.46L348.745 299.825C347.97 298.815 347.218 297.877 346.556 297.077C345.928 297.678 345.232 298.364 344.515 299.096L344.516 299.097C337.87 305.915 329.474 312.172 320.888 316.758L320.883 316.761C317.671 318.47 315.383 319.651 312.847 320.283C310.315 320.913 307.719 320.949 304.033 320.954L304.032 320.953C300.665 320.957 298.159 320.878 295.955 320.474C293.622 320.047 291.796 319.293 289.716 318.222L289.714 318.221C286.571 316.601 283.991 314.478 282.189 311.713C280.851 309.66 280.033 307.389 279.657 304.95C277.757 306.476 275.512 307.956 273.395 309.134C271.36 310.266 269.073 311.331 267.175 311.75C267.079 311.784 266.936 311.837 266.752 311.909C266.382 312.053 265.913 312.247 265.448 312.45L265.447 312.448C264.631 312.805 263.64 312.969 263.019 313.061C262.227 313.178 261.283 313.275 260.265 313.354C258.221 313.512 255.709 313.607 253.195 313.607L253.196 313.608L253.193 313.607L253.192 313.608V313.607C248.76 313.611 245.645 313.532 242.449 312.627C239.318 311.741 236.309 310.116 231.902 307.625V307.624C229.452 306.239 226.791 303.895 224.166 301.154C221.489 298.358 218.649 294.937 215.853 291.19C210.272 283.707 204.711 274.716 200.852 266.423V266.422C200.027 264.665 198.163 260.781 196.694 257.808L196.689 257.799C195.909 256.209 195.188 254.572 194.651 253.196C194.385 252.512 194.147 251.849 193.969 251.265C193.853 250.887 193.643 250.181 193.588 249.44C193.564 249.373 193.526 249.27 193.465 249.138C193.327 248.842 193.144 248.537 192.966 248.288C192.348 248.464 191.532 248.726 190.353 249.107L190.348 249.109C187.561 250.005 184.182 251.339 182.891 252.001C178.286 254.385 173.222 254.539 169.135 252.586C164.965 250.594 162.087 246.501 162.087 241.298C162.087 239.48 162.41 237.672 163.251 235.959C164.095 234.242 165.353 232.84 166.905 231.682C169.868 229.472 174.148 227.987 179.518 226.7C182.942 225.876 184.837 225.295 185.886 224.833C185.604 224.465 185.422 224.128 185.316 223.917C185.041 223.368 184.856 222.799 184.727 222.301C184.466 221.295 184.326 220.14 184.326 219.01C184.326 218.458 184.262 217.888 184.172 217.468C184.16 217.413 184.146 217.364 184.136 217.321C183.784 216.82 183.567 216.335 183.454 216.073C183.248 215.593 183.069 215.068 182.918 214.558C182.613 213.531 182.346 212.316 182.172 211.12L182.17 211.102C181.89 209.115 181.201 204.783 180.654 201.467V201.466C178.769 190.167 177.825 178.471 177.359 161.159C177.255 157.374 177.13 153.847 177.009 150.983C176.517 151.365 176.001 151.769 175.462 152.194C171.193 155.557 165.653 160.093 160.427 164.554L160.426 164.555C158.546 166.158 152.614 170.984 147.273 175.259C141.914 179.549 136.174 184.308 134.495 185.838C132.667 187.505 129.991 189.801 128.483 190.98C128.127 191.261 127.772 191.652 127.533 192.009C127.525 192.021 127.519 192.033 127.512 192.044C127.534 192.227 127.563 192.478 127.608 192.806C127.722 193.626 127.889 194.722 128.1 196.022C128.415 197.97 128.822 200.341 129.277 202.87L129.747 205.442L129.748 205.444C133.096 223.563 135.005 240.797 135.412 255.61C135.817 270.333 134.751 282.986 131.941 291.771L131.94 291.77C125.979 310.438 112.674 326.467 95.8134 335.136L95.8144 335.137C92.6036 336.79 90.3232 337.935 87.7324 338.523C85.1794 339.102 82.4914 339.1 78.583 339.064V339.063C74.8559 339.031 72.2163 338.948 69.8574 338.452C67.3786 337.93 65.4023 336.999 62.9238 335.696L62.9199 335.694C52.0811 329.98 43.8763 319.22 41.6728 307.542L41.6718 307.542C40.8679 303.274 40.7104 296.958 40.9863 290.961C41.2614 284.981 41.9931 278.765 43.1933 274.72C44.0116 271.945 45.1079 268.033 45.6093 266.064L45.6113 266.056L45.6133 266.047C46.1841 263.845 47.2615 260.646 48.083 258.8C48.4016 258.085 48.6904 257.361 48.8935 256.792C48.9915 256.518 49.0579 256.311 49.0967 256.177C49.1658 255.556 49.3273 254.995 49.4492 254.615C49.6204 254.081 49.8443 253.507 50.0908 252.928C50.5858 251.766 51.2629 250.373 52.0459 248.862C53.618 245.827 55.7265 242.106 57.955 238.387C60.1855 234.666 62.5653 230.897 64.6875 227.765C66.7228 224.762 68.7448 222.005 70.2256 220.58L70.581 220.223C71.4056 219.368 72.1804 218.373 72.3672 218.04C72.969 216.963 74.1941 215.411 75.5459 213.797C76.989 212.074 78.8479 209.965 80.9502 207.657C85.1572 203.037 90.415 197.533 95.4316 192.565L95.4336 192.563L103.505 184.578L102.437 180.129L102.436 180.125C101.581 176.541 99.7144 169.441 98.3037 164.372C96.8821 159.263 93.9785 148.635 91.8545 140.745C90.8817 137.131 89.9514 133.791 89.2148 131.224C87.3539 132.79 85.032 134.884 82.5166 137.261C76.5685 142.883 69.8173 149.821 65.8564 154.645L65.8574 154.646C62.6538 158.553 60.033 161.878 58.2275 164.306C57.3195 165.527 56.6526 166.475 56.2285 167.133C56.1153 167.309 56.0311 167.446 55.9707 167.548C55.8637 167.987 55.7191 168.331 55.6211 168.542C55.4152 168.983 55.1667 169.373 54.9365 169.693C54.495 170.306 53.9358 170.911 53.3252 171.432C53.3649 171.399 53.225 171.541 52.8935 172.042C52.5286 172.592 52.0719 173.359 51.54 174.326C50.48 176.252 49.2214 178.789 47.9326 181.583C45.3399 187.203 42.7587 193.579 41.4931 197.797C39.529 204.354 39.1486 207.126 39.0674 216.784V216.786C39.0305 220.908 39.0921 223.785 39.248 225.688C39.317 226.53 39.3991 227.084 39.4687 227.421C40.9486 229.265 41.3439 231.62 41.4004 233.472C41.4676 235.68 41.0843 238.089 40.4394 240.374C39.2003 244.763 36.6466 249.862 32.9287 252.572L32.9267 252.574C30.2742 254.504 26.2671 255.364 22.874 255.6C19.4684 255.837 15.3889 255.534 12.4668 254.024C7.19429 251.304 2.93507 245.329 1.3154 239.209L1.31345 239.202C0.458634 235.947 0.0578167 231.043 0.00583076 226.319C-0.0465328 221.556 0.251505 216.479 0.993135 212.808C1.5953 209.828 3.22795 204.145 4.79392 199.156C5.58643 196.631 6.3851 194.21 7.06052 192.312C7.39662 191.368 7.7141 190.517 7.99411 189.835C8.1852 189.37 8.53269 188.536 8.98239 187.89C8.98894 187.879 9.00638 187.85 9.0322 187.799C9.09351 187.68 9.17648 187.502 9.27243 187.275C9.46586 186.817 9.66284 186.272 9.80857 185.782C10.5138 183.384 12.1355 179.726 13.6748 176.649C14.4636 175.072 15.2795 173.549 16.0136 172.314C16.3789 171.7 16.7492 171.115 17.1045 170.613C17.3983 170.198 17.8843 169.543 18.499 169.033C18.5014 169.031 18.5101 169.02 18.5254 169.003C18.6213 168.431 18.7964 167.965 18.9238 167.667C19.136 167.172 19.4007 166.713 19.6621 166.318C20.1837 165.528 20.8655 164.728 21.6181 164.044C21.7739 163.903 21.9263 163.75 22.0644 163.597C22.1669 163.484 22.2523 163.379 22.3213 163.291C22.4292 162.879 22.5638 162.568 22.6328 162.413C22.8133 162.006 23.0327 161.617 23.2392 161.279C23.6575 160.594 24.2133 159.811 24.834 158.99C26.088 157.331 27.8156 155.247 29.7871 152.991C33.7364 148.47 38.8276 143.066 43.4355 138.644H43.4365C48.2789 133.999 56.1609 127.279 61.6465 123.09L62.7099 122.288C68.0979 118.267 73.0071 114.584 73.6933 114.032C74.5952 113.298 76.774 111.717 78.5312 110.479L78.5371 110.474C80.2377 109.281 81.3284 108.515 82.0918 107.893C82.4098 107.634 82.6012 107.451 82.7129 107.337V107.336C82.647 106.8 82.4576 106.046 82.0605 104.521L81.8916 103.84C81.0415 100.251 80.1039 93.9501 79.4023 88.0151C78.6627 81.7582 78.0996 75.2031 78.2783 72.2729C78.7429 64.4797 79.9057 58.0413 82.2177 52.314C84.5474 46.5433 87.9582 41.7053 92.6386 36.9966C96.5997 33.0124 101.465 29.0952 105.852 26.1558C108.045 24.6859 110.189 23.4124 112.099 22.4897C113.766 21.6839 115.795 20.8713 117.665 20.814C117.941 20.5684 118.191 20.3964 118.349 20.2925C118.779 20.0087 119.233 19.7786 119.646 19.5962C120.477 19.2295 121.45 18.9202 122.421 18.7222C123.776 18.4459 126.966 17.7343 129.518 17.1499L129.519 17.1489C143.745 13.8956 156.598 15.578 166.962 22.6548L167.639 23.1284C170.968 25.5177 173.538 28.2642 175.267 31.7349C177.092 35.3996 177.815 39.5461 177.87 44.3169C177.895 46.4283 177.781 48.6065 177.57 50.4536C177.465 51.376 177.331 52.2641 177.164 53.0464C177.017 53.7357 176.784 54.6445 176.38 55.438L176.381 55.439C175.794 56.5941 174.882 58.5351 174.389 59.7085L174.384 59.7202L174.379 59.731C173.774 61.1456 172.756 63.1862 172.052 64.3911L172.048 64.397L172.044 64.4038C170.974 66.2201 168.035 70.0353 165.478 73.1831C164.159 74.8081 162.851 76.3646 161.813 77.5317C161.302 78.107 160.812 78.638 160.398 79.0454C160.201 79.24 159.948 79.4777 159.678 79.6919C159.549 79.7943 159.327 79.9626 159.044 80.1245C158.984 80.1587 158.763 80.2893 158.423 80.4165C158.342 80.4717 158.235 80.5482 158.101 80.6479C157.6 81.0206 156.927 81.5721 156.231 82.2007C151.339 86.6344 146.227 90.3895 132.778 99.522L132.777 99.5229C125.706 104.322 117.472 109.915 114.467 111.955C113.14 112.855 111.891 113.874 110.975 114.755C110.597 115.119 110.31 115.425 110.112 115.66C110.113 115.673 110.113 115.686 110.113 115.7C110.126 116.16 110.177 116.819 110.282 117.703C110.492 119.465 110.887 121.895 111.478 124.999C112.656 131.195 114.569 139.854 117.186 150.789L119.241 159.36C119.835 161.815 120.346 163.888 120.798 165.631C121.113 166.849 121.39 167.861 121.633 168.699C123.4 167.026 126.182 164.744 128.491 163.032L128.498 163.027C129.861 162.021 131.2 160.993 132.25 160.156C132.776 159.736 133.215 159.377 133.541 159.099C133.932 158.766 134.001 158.685 133.927 158.768C134.421 158.221 135.263 157.506 135.995 156.911C136.816 156.243 137.801 155.481 138.766 154.778C140.527 153.486 142.94 151.608 144.089 150.629C147.895 147.388 163.535 134.662 172.519 127.507L179.731 121.747L180.612 116.123L180.74 115.339C181.444 111.2 183.07 103.803 184.724 96.8413C186.471 89.4876 188.363 82.1363 189.332 79.4819C189.922 77.8606 190.992 75.2166 191.726 73.5474C192.025 72.8658 192.297 72.1456 192.486 71.562C192.581 71.2692 192.643 71.0488 192.677 70.9097C192.677 70.9082 192.677 70.9062 192.678 70.9048C192.726 70.211 192.917 69.6027 192.998 69.3452C193.138 68.9005 193.319 68.421 193.514 67.9507C193.905 67.0032 194.428 65.9015 194.995 64.8442C195.44 64.0161 195.84 63.1555 196.118 62.4653C196.256 62.1236 196.344 61.8672 196.394 61.7056C196.437 61.2298 196.539 60.8357 196.594 60.6362C196.687 60.2942 196.805 59.9418 196.926 59.6099C197.17 58.9405 197.501 58.1459 197.878 57.2944C198.636 55.5801 199.669 53.4361 200.802 51.1987C203.05 46.7565 205.821 41.6923 207.792 38.6753L207.795 38.6714C208.611 37.4258 209.34 36.2164 209.851 35.2905C210.091 34.854 210.258 34.5205 210.36 34.3003C210.464 33.7645 210.636 33.3404 210.753 33.0845C210.961 32.6276 211.215 32.2187 211.456 31.8784C211.932 31.2066 212.548 30.5369 213.232 29.9712L213.297 29.9067C213.352 29.8502 213.443 29.7553 213.57 29.6118C213.799 29.3528 214.079 29.0134 214.39 28.6128C215.014 27.8091 215.695 26.847 216.267 25.9429C221.221 18.0976 230.718 9.70833 239.78 4.98779L240.656 4.54248C244.589 2.59024 247.141 1.30733 249.985 0.657715C252.798 0.0153843 255.792 0.0177955 260.496 0.00439453V0.00341797ZM63.039 331.169C63.3146 331.335 63.5912 331.499 63.8711 331.657C64.1731 331.827 64.4782 331.994 64.7851 332.156C65.6901 332.632 66.4767 333.029 67.207 333.361V333.36C66.4767 333.028 65.6901 332.631 64.7851 332.155C64.1939 331.843 63.6121 331.513 63.039 331.169ZM62.2558 330.685C62.4519 330.81 62.6492 330.932 62.8476 331.053C62.6492 330.932 62.452 330.81 62.2558 330.685ZM61.2217 330.006C61.4732 330.178 61.7277 330.346 61.9834 330.511C61.7276 330.346 61.4732 330.178 61.2217 330.006ZM768.394 33.9312C769.965 33.9312 771.295 34.5002 772.325 35.0269L772.748 35.2485L772.753 35.2515C774.113 35.978 775.775 36.9828 777.026 39.0044C778.176 40.8621 778.736 43.185 779.089 46.0278C779.791 51.6919 779.877 61.6051 779.936 79.6538C780.002 98.1633 780.318 117.545 780.625 122.749H780.624L780.978 128.634L796.151 128.406C833.759 127.84 858.793 126.391 871.017 124.163L872.853 123.835C876.987 123.116 880.102 122.721 882.567 122.831C885.793 122.974 888.018 123.976 890.081 125.779L890.534 126.191C891.571 127.173 892.455 128.313 893.06 129.789C893.713 131.385 893.915 133.079 893.978 134.82V134.823C894.038 136.548 894.032 138.411 893.336 140.156C892.581 142.046 891.247 143.261 890.018 144.241L890.017 144.242C888.344 145.574 886.718 146.378 884.012 146.853C881.64 147.269 878.235 147.466 872.944 147.694C858.552 148.315 851.458 148.955 846.117 150.026L846.118 150.027C843.716 150.513 838.413 151.376 834.299 151.947C830.24 152.519 824.886 153.354 822.424 153.81L822.41 153.812C819.791 154.288 815.739 154.894 813.338 155.157L813.339 155.158C808.136 155.743 786.366 158.932 781.499 159.813L782.038 177.873C783.677 232.967 787.824 279.338 793.243 304.026L793.726 306.238C794.791 311.176 795.427 314.581 795.413 317.05C795.404 318.625 795.143 320.106 794.42 321.514C793.731 322.856 792.769 323.826 791.961 324.575L791.962 324.576C790.434 325.991 788.699 327.131 786.541 327.615C784.419 328.09 782.335 327.831 780.294 327.284L780.284 327.281C777.284 326.468 775.542 323.713 774.577 321.582C773.488 319.175 772.748 316.153 772.387 312.881V312.876C772.289 311.978 772.152 310.847 771.998 309.602C770.144 313.711 767.61 317.258 764.417 319.99L764.418 319.991C762.679 321.481 761.067 322.78 759.042 323.521C757.028 324.258 754.946 324.317 752.632 324.317C748.213 324.317 745.239 323.699 742.076 321.532L742.073 321.53C739.986 320.096 737.868 317.508 736.287 315.14C734.719 312.791 733.141 309.853 732.651 307.398V307.399C732.516 306.731 732.195 305.61 731.982 305.042C731.593 304 731.098 302.116 730.817 300.732L730.814 300.718L730.812 300.705C730.595 299.593 729.524 295.368 728.411 291.254C727.319 287.217 726.166 282.698 725.883 281.251C725.676 280.193 725.195 278.565 724.89 277.8V277.799C724.374 276.528 723.477 273.65 722.841 271.366C721.834 267.749 720.252 262.579 717.324 253.382C717.029 252.458 716.768 251.447 716.578 250.543C716.424 249.808 716.26 248.883 716.231 248.083C716.226 248.057 716.22 248.022 716.209 247.979C716.157 247.775 716.067 247.477 715.934 247.1C715.667 246.346 715.287 245.442 714.869 244.607L714.866 244.6C714.167 243.195 713.379 241.478 712.841 240.166C711.554 240.099 709.324 240.137 705.315 240.275L705.307 240.276C702.353 240.371 699.309 240.364 696.767 240.274C694.416 240.191 692 240.026 690.637 239.659V239.658C690.38 239.589 690.183 239.541 690.025 239.505C689.967 239.557 689.897 239.618 689.817 239.694C689.381 240.108 688.814 240.713 687.962 241.654L687.963 241.655C687.051 242.665 686.236 243.67 685.671 244.45C685.461 244.739 685.309 244.967 685.207 245.13C684.976 246.11 684.508 246.888 684.23 247.306C683.759 248.019 683.139 248.728 682.435 249.316C682.554 249.216 682.514 249.226 682.308 249.488C682.133 249.709 681.912 250.018 681.661 250.399C681.158 251.164 680.623 252.094 680.196 252.97L680.192 252.977C679.125 255.159 677.42 258.257 676.332 259.95C675.431 261.351 673.825 264.158 672.811 266.113C671.712 268.234 669.983 271.264 668.919 272.919C668.042 274.284 666.486 277.095 665.515 279.082C664.932 280.278 664.226 281.504 663.545 282.541C662.949 283.446 662.106 284.625 661.214 285.37C661.206 285.377 661.177 285.401 661.14 285.444C661.043 286.011 660.872 286.473 660.745 286.768C660.533 287.264 660.268 287.722 660.007 288.118C659.485 288.907 658.803 289.707 658.051 290.391C657.914 290.515 657.776 290.656 657.649 290.801C657.553 290.912 657.471 291.014 657.407 291.102C657.32 291.539 657.193 291.899 657.094 292.146C656.907 292.609 656.676 293.039 656.455 293.407C656.013 294.144 655.44 294.922 654.832 295.678C653.604 297.207 651.975 298.964 650.257 300.666C648.531 302.375 646.648 304.093 644.887 305.538C643.2 306.921 641.376 308.262 639.817 309.004L639.816 309.003C637.336 310.188 634.628 311.511 633.79 311.939L633.789 311.938C632.426 312.635 630.627 312.881 629.27 313.001C627.705 313.141 625.901 313.172 624.101 313.118C620.644 313.013 616.549 312.572 613.943 311.644C607.55 309.373 602.646 304.918 597.971 297.962L597.968 297.958L595.93 294.919L590.51 297.549C588.083 298.729 585.583 299.844 583.491 300.693C582.447 301.117 581.474 301.487 580.645 301.769C579.922 302.015 579.023 302.295 578.241 302.399L578.242 302.4C577.142 302.549 575.541 302.981 574.923 303.245C574.326 303.5 573.697 303.613 573.382 303.667C572.963 303.739 572.487 303.8 571.989 303.852C570.987 303.957 569.723 304.048 568.301 304.122C565.449 304.269 561.812 304.358 558.061 304.353H558.059L558.057 304.354V304.353C551.573 304.353 547.823 304.345 544.349 303.82C540.827 303.288 537.665 302.238 532.349 300.46H532.348C525.632 298.215 520.637 296.074 517.175 293.341C513.428 290.384 511.626 286.861 510.971 282.504L510.97 282.503C510.501 279.381 510.458 276.512 511.071 273.758C511.693 270.969 512.935 268.54 514.703 266.225C517.966 261.943 522.114 259.333 527.446 258.987C532.477 258.661 538.054 260.394 544.281 263.463H544.282C549.043 265.812 554.672 267.805 557.671 268.326H557.674C566.735 269.906 577.379 268.338 585.061 264.369L585.416 264.175C585.435 264.164 585.452 264.151 585.469 264.141C585.475 263.914 585.465 263.531 585.392 262.923C585.279 261.993 585.053 260.764 584.698 259.071C582.947 250.714 580.935 234.078 580.935 227.681C580.935 216.093 583.508 206.317 588.654 199.488C593.934 192.482 601.681 188.928 610.912 189.621H610.911C626.862 190.816 638.974 203.968 638.974 220.011C638.973 223 638.267 226.997 637.225 231.254C636.162 235.592 634.68 240.48 632.978 245.361C629.611 255.022 625.235 265.093 621.328 270.912L621.327 270.911C620.135 272.689 619.378 273.889 618.912 274.815C618.457 275.719 618.454 276.032 618.454 276.06C618.454 276.067 618.453 276.096 618.479 276.175C618.511 276.272 618.589 276.459 618.773 276.764C619.076 277.265 619.539 277.883 620.257 278.75L621.063 279.706L621.066 279.709C621.865 280.644 622.343 281.148 622.647 281.424C623.026 281.225 623.685 280.809 624.75 279.963C626.221 278.795 628.111 277.109 630.719 274.743C632.834 272.822 637.096 267.954 640.392 263.647L641.037 262.793C642.776 260.463 644.533 258.195 645.972 256.41C646.689 255.519 647.343 254.729 647.882 254.106C648.341 253.575 648.925 252.919 649.427 252.5L649.437 252.492L649.447 252.484C649.536 252.411 649.619 252.327 649.688 252.252C649.704 252.199 649.718 252.155 649.728 252.123C649.809 251.875 649.9 251.664 649.969 251.515C650.107 251.216 650.27 250.921 650.417 250.668C650.719 250.15 651.117 249.533 651.561 248.881C652.457 247.564 653.667 245.908 654.981 244.217C656.227 242.614 657.349 241.105 658.145 239.976C658.544 239.411 658.836 238.977 659.017 238.69C659.056 238.575 659.085 238.502 659.092 238.485C659.186 238.24 659.293 238.009 659.384 237.825C659.57 237.446 659.807 237.013 660.061 236.574C660.575 235.683 661.263 234.581 662.008 233.468C663.298 231.517 665.741 227.24 667.368 224.023C668.228 222.322 669.14 220.605 669.92 219.199C670.639 217.902 671.395 216.595 671.898 215.924L671.904 215.917C673.852 213.334 676.537 211.763 680.143 210.741C683.616 209.756 688.231 209.199 694.397 208.793C701.039 208.351 708.705 207.403 711.407 206.749L711.412 206.748C715.528 205.755 718.763 205.494 722.311 206.062L723.025 206.187L723.031 206.188C725.805 206.716 729.054 208.071 731.796 209.559C734.269 210.901 736.957 212.689 738.577 214.583L738.887 214.963L738.898 214.979C740.292 216.804 741.985 220.076 743.354 223.106C744.644 225.96 745.904 229.171 746.456 231.461L746.557 231.908L746.559 231.915C747.775 237.761 749.167 245.627 749.722 249.854L749.827 250.612C750.088 252.392 750.434 254.193 750.615 254.817L750.62 254.832L750.624 254.846C750.932 255.937 751.302 257.947 751.679 260.333C754.317 243.599 756.954 198.038 756.99 167.139L756.994 163.412L755.646 163.561H755.642C747.505 164.449 730.419 167.636 723.612 169.525L723.611 169.526C716.598 171.469 711.348 172.572 706.968 172.123C702.149 171.628 698.833 169.334 695.544 165.995V165.994C693.733 164.158 692.032 162.482 691.14 160.311C690.247 158.137 690.28 155.748 690.28 153.166C690.28 149.13 690.767 145.299 692.593 141.989C694.489 138.551 697.537 136.185 701.633 134.525C705.628 132.906 710.814 131.878 717.353 131.153C723.934 130.423 732.151 129.977 742.332 129.64L744.064 129.578C748.06 129.423 751.72 129.208 754.517 128.979C755.433 128.904 756.24 128.827 756.927 128.753C756.93 128.705 756.934 128.654 756.936 128.604C757.047 126.624 757.144 123.706 757.223 119.883C757.379 112.25 757.463 101.154 757.463 87.0513C757.463 73.0899 757.549 61.8869 757.708 54.0532C757.788 50.1423 757.886 47.0371 758.004 44.8374C758.062 43.7454 758.128 42.8224 758.205 42.1157C758.243 41.7693 758.291 41.4061 758.355 41.0718C758.388 40.9062 758.436 40.6861 758.508 40.4487C758.559 40.2794 758.712 39.791 759.056 39.2729C759.682 38.3279 760.627 37.508 761.338 36.9556C762.138 36.3335 763.086 35.712 764.028 35.2251L764.034 35.2222C765.131 34.6577 766.621 33.9312 768.394 33.9312ZM752.631 320.316C752.385 320.316 752.146 320.314 751.914 320.31L752.631 320.317L752.632 320.316C752.931 320.316 753.216 320.314 753.486 320.31C753.215 320.314 752.93 320.316 752.631 320.316ZM462.675 316.534C463.004 316.544 463.313 316.551 463.604 316.549C463.401 316.551 463.189 316.548 462.968 316.543C462.872 316.541 462.774 316.537 462.675 316.534ZM465.238 316.446C464.913 316.49 464.567 316.52 464.191 316.536C464.379 316.528 464.56 316.517 464.734 316.502C464.908 316.488 465.076 316.469 465.238 316.447V316.446ZM462.272 316.521C462.312 316.523 462.351 316.523 462.39 316.525C462.279 316.52 462.167 316.515 462.052 316.509C462.126 316.513 462.2 316.518 462.272 316.521ZM458.39 316.207C458.613 316.236 458.845 316.263 459.089 316.289C459.332 316.314 459.586 316.338 459.853 316.361C460.119 316.384 460.397 316.405 460.688 316.426C461.085 316.455 461.457 316.476 461.809 316.496C461.457 316.476 461.085 316.454 460.688 316.425C459.815 316.363 459.059 316.294 458.39 316.207ZM467.764 315.617V315.618V315.617ZM48.0478 314.427C48.2152 314.794 48.3902 315.158 48.5713 315.519L48.3047 314.974C48.2175 314.792 48.1315 314.61 48.0478 314.426V314.427ZM469.094 314.767C468.81 314.969 468.541 315.151 468.279 315.315L468.544 315.146C468.722 315.029 468.905 314.903 469.094 314.768C469.172 314.712 469.249 314.655 469.327 314.597C469.25 314.655 469.172 314.711 469.094 314.767ZM469.384 314.555C469.445 314.509 469.506 314.462 469.566 314.416C469.506 314.462 469.445 314.509 469.384 314.555ZM316.636 314.466C316.809 314.378 316.987 314.287 317.17 314.193C316.987 314.287 316.809 314.378 316.636 314.466ZM470.661 313.488C470.339 313.786 470.01 314.067 469.675 314.331C469.958 314.108 470.238 313.875 470.511 313.627C470.561 313.582 470.611 313.534 470.661 313.488ZM319.003 313.229C318.436 313.531 317.912 313.807 317.422 314.062C317.556 313.992 317.694 313.922 317.834 313.849L319.003 313.23C319.194 313.128 319.385 313.023 319.576 312.919C319.385 313.023 319.194 313.127 319.003 313.229ZM470.709 313.443C470.87 313.293 471.03 313.139 471.187 312.98V312.979C471.03 313.138 470.87 313.292 470.709 313.443ZM776.221 311.184C776.274 311.638 776.322 312.061 776.363 312.443V312.442C776.322 312.06 776.274 311.637 776.221 311.183V311.184ZM367.142 310.108L367.56 310.238C367.681 310.273 367.81 310.306 367.947 310.338L367.56 310.237C367.287 310.159 367.006 310.066 366.719 309.958C366.861 310.011 367.002 310.062 367.142 310.108ZM387.223 309.005C386.856 309.133 386.541 309.2 386.288 309.2C386.096 309.2 385.896 309.226 385.699 309.273L385.848 309.242C385.996 309.215 386.144 309.201 386.288 309.201C386.491 309.201 386.732 309.157 387.009 309.075C387.078 309.054 387.149 309.031 387.223 309.005ZM263.849 308.783C263.802 308.803 263.747 308.821 263.686 308.841C263.747 308.821 263.802 308.804 263.849 308.784C264.103 308.673 264.36 308.563 264.605 308.461L263.849 308.783ZM242.461 308.435C242.508 308.451 242.554 308.468 242.601 308.484C242.554 308.468 242.508 308.451 242.461 308.435ZM242.067 308.294C242.096 308.305 242.125 308.314 242.153 308.325C242.108 308.308 242.062 308.291 242.017 308.274C242.034 308.28 242.05 308.288 242.067 308.294ZM389.043 308.13C389.229 308.024 389.42 307.908 389.616 307.788C389.42 307.908 389.229 308.024 389.043 308.13ZM240.521 307.657C240.829 307.795 241.13 307.922 241.424 308.042C240.903 307.829 240.364 307.589 239.794 307.317C240.042 307.435 240.284 307.55 240.521 307.657ZM108.291 210.626C105.856 213.107 102.829 216.611 99.6855 220.565C93.5502 228.283 87.3121 237.286 84.3134 243.223L84.0342 243.788C78.1411 255.92 75.1867 266.093 73.7646 279.102C73.065 285.502 73.3889 291.71 74.4775 296.76C75.603 301.981 77.3973 305.297 79.0615 306.703L79.2383 306.846C80.1179 307.535 80.9056 307.769 81.9424 307.708C83.2815 307.631 85.2499 307.038 88.2734 305.435L88.2754 305.433C98.6621 299.934 108.436 286.433 111.504 272.666C114.45 259.385 114.268 243.337 110.595 219.965V219.964C110.03 216.408 109.421 212.488 109.02 209.9C108.787 210.128 108.543 210.37 108.291 210.626ZM389.764 307.696C389.908 307.606 390.054 307.512 390.203 307.416C390.054 307.512 389.908 307.606 389.764 307.696ZM390.426 307.269C390.552 307.186 390.679 307.1 390.809 307.012C390.679 307.1 390.552 307.186 390.426 307.269ZM391.076 306.829C391.204 306.74 391.333 306.651 391.463 306.558C391.333 306.651 391.204 306.74 391.076 306.829ZM391.721 306.372C391.855 306.274 391.991 306.175 392.128 306.074C391.991 306.175 391.855 306.274 391.721 306.372ZM638.411 305.233C638.303 305.291 638.198 305.344 638.097 305.392C637.519 305.668 636.927 305.953 636.347 306.233C636.927 305.953 637.519 305.669 638.097 305.393C638.299 305.297 638.516 305.181 638.745 305.047L638.411 305.233ZM392.43 305.85C392.542 305.766 392.655 305.679 392.769 305.592C392.655 305.679 392.542 305.766 392.43 305.85ZM393.103 305.335C393.27 305.206 393.438 305.075 393.607 304.941C393.438 305.075 393.27 305.206 393.103 305.335ZM398.196 300.947C396.713 302.353 395.197 303.672 393.754 304.825C395.197 303.672 396.713 302.353 398.196 300.947ZM230.686 301.847C230.715 301.871 230.743 301.894 230.771 301.917C230.601 301.774 230.429 301.626 230.255 301.474H230.254C230.399 301.601 230.543 301.726 230.686 301.847ZM770.541 301.444L770.542 301.443C770.599 301.2 770.654 300.955 770.707 300.708C770.716 300.667 770.724 300.626 770.732 300.584C770.671 300.873 770.608 301.16 770.541 301.444ZM734.401 298.451C734.48 298.777 734.548 299.069 734.604 299.319C734.661 299.569 734.706 299.777 734.737 299.937C734.77 300.097 734.805 300.262 734.843 300.431L734.737 299.936C734.675 299.616 734.558 299.103 734.401 298.45V298.451ZM400.447 298.713C399.745 299.444 399.02 300.161 398.287 300.859C398.669 300.495 399.051 300.127 399.427 299.752C399.771 299.41 400.111 299.063 400.447 298.714C400.67 298.484 400.9 298.239 401.136 297.981L400.447 298.713ZM558.061 300.354C558.979 300.355 559.889 300.349 560.781 300.339C559.889 300.349 558.979 300.354 558.061 300.353L553.668 300.343C554.964 300.352 556.413 300.354 558.061 300.354ZM770.786 300.323C770.828 300.118 770.87 299.913 770.909 299.707C770.87 299.913 770.828 300.118 770.786 300.323ZM770.962 299.42C770.999 299.22 771.035 299.019 771.069 298.817C771.035 299.019 770.999 299.22 770.962 299.42ZM771.115 298.544C771.162 298.257 771.207 297.968 771.248 297.676C771.207 297.968 771.162 298.257 771.115 298.544ZM282.553 298.099C282.576 298.105 282.599 298.117 282.621 298.133L282.553 298.098L282.512 298.093L282.553 298.099ZM530.594 295.615C530.76 295.675 530.928 295.737 531.099 295.797C530.928 295.737 530.76 295.675 530.594 295.615ZM585.242 295.593H585.243C585.53 295.465 585.82 295.334 586.112 295.201H586.111C585.819 295.334 585.529 295.465 585.242 295.593ZM529.252 295.119C529.441 295.19 529.632 295.262 529.826 295.333C529.632 295.262 529.441 295.19 529.252 295.119ZM528.117 294.68C528.288 294.748 528.462 294.814 528.637 294.882C528.462 294.815 528.288 294.748 528.117 294.68ZM588.762 293.952C588.467 294.095 588.172 294.237 587.877 294.377C588.172 294.237 588.468 294.096 588.762 293.953L597.314 289.802L588.762 293.952ZM732.272 290.21C732.548 291.229 732.825 292.266 733.088 293.269L732.272 290.209C732.213 289.989 732.154 289.766 732.095 289.544C732.154 289.767 732.213 289.989 732.272 290.21ZM772.839 290.763C772.869 290.773 772.9 290.793 772.931 290.823L772.885 290.785C772.869 290.775 772.854 290.768 772.839 290.763ZM371.324 287.609C371.338 287.617 371.352 287.625 371.366 287.633C371.224 287.547 371.079 287.455 370.931 287.357L371.324 287.609ZM655.172 287.607V287.608L655.36 287.431C655.424 287.373 655.487 287.314 655.549 287.253L655.172 287.607ZM239.779 241.22C239.367 241.213 239.178 241.231 239.146 241.232C238.797 241.326 238.463 241.379 238.308 241.403C238.029 241.445 237.703 241.486 237.354 241.526C236.652 241.607 235.746 241.695 234.711 241.784C232.636 241.962 229.956 242.154 227.165 242.318C224.43 242.478 221.831 242.662 219.853 242.826C218.861 242.908 218.043 242.983 217.451 243.047C217.153 243.08 216.935 243.106 216.792 243.126C216.771 243.129 216.753 243.132 216.738 243.134C216.163 243.295 215.217 243.534 214.252 243.761C214.329 244.001 214.435 244.302 214.572 244.665C214.869 245.448 215.28 246.434 215.786 247.583C216.797 249.875 218.141 252.697 219.604 255.62C222.382 261.166 225.456 266.797 227.413 269.781L227.789 270.341L227.793 270.347C229.442 272.752 232.623 276.309 235.905 279.516C237.523 281.097 239.103 282.532 240.45 283.641C241.72 284.686 242.557 285.251 242.95 285.467L243.092 285.539L243.096 285.541C246.32 286.984 247.699 287.415 248.893 287.484C250.075 287.552 251.46 287.286 254.76 286.219L254.764 286.217C257.434 285.356 259.691 283.944 262.52 281.075C263.663 279.911 264.677 278.746 265.38 277.834C265.643 277.493 265.835 277.221 265.965 277.024C266.096 276.287 266.371 275.549 266.826 274.885C267.231 274.294 267.896 273.618 268.813 273.194C268.841 273.15 268.873 273.104 268.905 273.052C269.376 272.284 269.968 271.089 270.575 269.627C271.814 266.644 272.813 263.289 273.02 261.288C273.551 256.122 273.064 253.454 271.973 251.664C270.871 249.857 268.671 248.154 263.75 246.153V246.152C260.938 245.011 255.195 243.579 249.604 242.53C246.856 242.014 244.264 241.613 242.229 241.396C241.208 241.287 240.384 241.23 239.779 241.22ZM731.457 287.15C731.487 287.264 731.519 287.378 731.549 287.493C731.455 287.138 731.364 286.787 731.274 286.442C731.335 286.675 731.395 286.912 731.457 287.15ZM369.478 286.288C369.533 286.331 369.587 286.376 369.642 286.418C369.587 286.376 369.533 286.331 369.478 286.288ZM368.965 285.867C369.031 285.922 369.097 285.978 369.163 286.033C369.097 285.978 369.031 285.922 368.965 285.867ZM368.471 285.444C368.538 285.503 368.605 285.562 368.673 285.62C368.606 285.562 368.538 285.503 368.471 285.444ZM263.823 285.363C263.947 285.251 264.072 285.14 264.196 285.024L264.232 284.99C264.096 285.117 263.959 285.24 263.823 285.363ZM367.936 284.968C368.027 285.051 368.119 285.133 368.21 285.214C368.119 285.133 368.027 285.051 367.936 284.968ZM730.721 284.297C730.768 284.483 730.818 284.672 730.867 284.865C730.767 284.473 730.67 284.095 730.58 283.736C730.626 283.918 730.672 284.106 730.721 284.297ZM367.412 284.485C367.537 284.602 367.661 284.717 367.785 284.831C367.661 284.717 367.537 284.602 367.412 284.485ZM657.214 284.624V284.625C657.214 284.594 657.215 284.562 657.219 284.529C657.215 284.561 657.214 284.593 657.214 284.624ZM366.953 284.046C367.054 284.144 367.156 284.241 367.257 284.337C367.156 284.241 367.054 284.144 366.953 284.046ZM366.007 283.103C366.254 283.358 366.505 283.606 366.754 283.851C366.349 283.454 365.945 283.043 365.546 282.622L366.007 283.103ZM730.144 281.968C730.251 282.415 730.377 282.926 730.518 283.487C730.377 282.926 730.251 282.415 730.144 281.968ZM233.109 282.376C233.319 282.581 233.529 282.783 233.737 282.984L233.109 282.375C232.69 281.966 232.271 281.549 231.853 281.127L233.109 282.376ZM438.853 282.892L438.818 282.808C438.769 282.694 438.721 282.589 438.677 282.494C438.732 282.612 438.79 282.745 438.853 282.892ZM658.806 282.157C658.751 282.21 658.7 282.257 658.65 282.298C658.637 282.31 658.624 282.321 658.61 282.333L658.65 282.299C658.7 282.258 658.751 282.21 658.806 282.157ZM438.356 281.919C438.382 281.95 438.412 281.991 438.444 282.044C438.412 281.991 438.383 281.949 438.356 281.918C438.318 281.874 438.279 281.821 438.242 281.762L438.356 281.919ZM267.215 281.889C267.286 281.808 267.356 281.727 267.425 281.647C267.356 281.727 267.286 281.808 267.215 281.889ZM413.732 279.97C413.697 280.032 413.667 280.092 413.64 280.15C413.667 280.092 413.697 280.031 413.732 279.97ZM413.877 279.738C413.84 279.793 413.807 279.848 413.774 279.902C413.807 279.848 413.84 279.793 413.877 279.738ZM414.066 279.479C414.024 279.533 413.983 279.587 413.944 279.641C413.983 279.587 414.024 279.533 414.066 279.479ZM414.304 279.197C414.248 279.259 414.193 279.321 414.142 279.384C414.193 279.321 414.248 279.259 414.304 279.197ZM414.563 278.925C414.492 278.995 414.422 279.066 414.355 279.138C414.422 279.066 414.492 278.995 414.563 278.925ZM414.865 278.649C414.775 278.725 414.688 278.805 414.603 278.886C414.688 278.804 414.776 278.725 414.866 278.649C414.889 278.63 414.913 278.607 414.939 278.581C414.943 278.577 414.946 278.573 414.949 278.57C414.919 278.601 414.891 278.628 414.865 278.649ZM415.07 278.429C415.127 278.36 415.189 278.28 415.256 278.188C415.189 278.28 415.127 278.36 415.07 278.429ZM415.293 278.136C415.364 278.036 415.441 277.925 415.522 277.802C415.441 277.925 415.364 278.036 415.293 278.136ZM415.571 277.728C415.666 277.583 415.769 277.424 415.876 277.25C415.769 277.424 415.666 277.583 415.571 277.728ZM271.548 276.217C271.34 276.456 271.149 276.626 270.977 276.711C271.149 276.626 271.34 276.456 271.548 276.217ZM436.765 276.383C436.734 276.357 436.702 276.334 436.67 276.314C436.638 276.294 436.606 276.272 436.575 276.247L436.765 276.383ZM271.671 276.072C271.711 276.022 271.75 275.971 271.791 275.917C271.75 275.971 271.711 276.022 271.671 276.072ZM271.895 275.776C271.935 275.719 271.975 275.66 272.017 275.599C271.975 275.66 271.935 275.719 271.895 275.776ZM272.12 275.446C272.165 275.377 272.211 275.306 272.257 275.232C272.211 275.305 272.165 275.377 272.12 275.446ZM272.369 275.048C272.407 274.986 272.445 274.921 272.483 274.856C272.445 274.921 272.407 274.986 272.369 275.048ZM272.613 274.63C272.651 274.564 272.689 274.496 272.727 274.427C272.689 274.496 272.651 274.564 272.613 274.63ZM273.115 273.687C273.139 273.64 273.165 273.593 273.188 273.545C273.232 273.457 273.275 273.367 273.319 273.276C273.275 273.367 273.232 273.458 273.187 273.546C273.164 273.594 273.139 273.64 273.115 273.687ZM418.164 273.194C418.452 272.654 418.747 272.089 419.05 271.508C418.747 272.089 418.452 272.654 418.164 273.194ZM273.415 273.078C273.552 272.791 273.69 272.493 273.827 272.186C273.69 272.493 273.552 272.791 273.415 273.078ZM557.918 272.417C558.07 272.441 558.223 272.459 558.376 272.481C558.213 272.458 558.05 272.437 557.888 272.413L557.918 272.417ZM273.886 272.052C274.009 271.773 274.131 271.487 274.253 271.196C274.131 271.487 274.009 271.773 273.886 272.052ZM419.296 271.037C419.592 270.464 419.893 269.877 420.194 269.283C419.893 269.877 419.592 270.464 419.296 271.037ZM421.356 266.957C421.671 266.318 421.981 265.68 422.284 265.05C421.981 265.68 421.671 266.318 421.356 266.957ZM331.813 268.173C331.836 268.141 331.86 268.109 331.882 268.077L331.898 268.051C331.871 268.092 331.842 268.132 331.813 268.173ZM298.274 265.541V265.542C298.36 265.144 298.439 264.762 298.515 264.395V264.394C298.439 264.761 298.36 265.143 298.274 265.541ZM51.457 261.088C51.3601 261.327 51.2598 261.583 51.1582 261.851L51.1592 261.852C51.2608 261.583 51.3611 261.327 51.458 261.088H51.457ZM426.367 255.368C426.306 255.537 426.246 255.712 426.187 255.893C426.246 255.712 426.306 255.537 426.367 255.368ZM426.623 254.71C426.555 254.871 426.491 255.038 426.426 255.21C426.491 255.038 426.555 254.871 426.623 254.71ZM746.118 252.762C746.163 253.026 746.209 253.285 746.255 253.537C746.209 253.285 746.163 253.025 746.118 252.761V252.762ZM276.574 252.276H276.575C276.543 252.167 276.509 252.06 276.475 251.954H276.474C276.508 252.06 276.542 252.167 276.574 252.276ZM30.372 249.474C30.4401 249.429 30.5089 249.386 30.5732 249.339C30.8651 249.127 31.1514 248.888 31.4316 248.626L31.2197 248.818C31.0074 249.005 30.7919 249.179 30.5732 249.338C30.5087 249.385 30.4403 249.428 30.372 249.474ZM272.745 246.581C273.111 246.884 273.452 247.197 273.769 247.519C274.006 247.761 274.231 248.007 274.442 248.26C273.95 247.67 273.386 247.113 272.746 246.582L272.745 246.581ZM32.2519 247.778C32.0519 248.005 31.8482 248.222 31.6406 248.426L31.8476 248.218C31.9845 248.077 32.1195 247.93 32.2529 247.778H32.2519ZM679.87 246.245C679.821 246.286 679.769 246.333 679.715 246.386L679.87 246.246C679.919 246.204 679.968 246.161 680.017 246.118L679.87 246.245ZM680.867 245.136L680.895 245.098C680.908 245.08 680.917 245.06 680.929 245.042C680.909 245.073 680.888 245.105 680.867 245.136ZM681.02 244.893C681.037 244.864 681.054 244.836 681.069 244.807C681.054 244.836 681.037 244.864 681.02 244.893ZM459.351 243.561C459.39 243.647 459.428 243.739 459.464 243.837C459.428 243.739 459.39 243.646 459.351 243.56V243.561ZM459.27 243.398L459.185 243.255C459.177 243.244 459.168 243.233 459.16 243.222C459.198 243.275 459.234 243.333 459.27 243.398ZM459.152 243.211C459.115 243.16 459.077 243.114 459.038 243.074C459.077 243.113 459.115 243.16 459.152 243.211ZM458.847 242.92C458.867 242.937 458.888 242.952 458.909 242.965C458.866 242.939 458.826 242.904 458.786 242.862L458.847 242.92ZM458.672 242.711C458.69 242.74 458.709 242.767 458.728 242.792L458.672 242.71C458.635 242.653 458.6 242.588 458.566 242.515L458.672 242.711ZM658.784 239.826L658.773 240.113C658.773 240.008 658.778 239.905 658.786 239.805C658.786 239.812 658.785 239.819 658.784 239.826ZM484.624 238.546L480.223 239.936V239.937L484.624 238.547C485.116 238.391 485.72 238.204 486.402 237.993C485.721 238.203 485.116 238.39 484.624 238.546ZM662.957 239.623C662.901 239.739 662.856 239.838 662.825 239.918H662.826C662.857 239.838 662.901 239.739 662.957 239.623ZM663.385 238.818C663.348 238.883 663.313 238.947 663.279 239.008C663.313 238.947 663.348 238.883 663.385 238.818ZM439.467 238.833C439.469 238.872 439.473 238.911 439.477 238.952C439.467 238.823 439.458 238.699 439.454 238.581L439.467 238.833ZM663.957 237.846C663.891 237.955 663.826 238.061 663.765 238.165C663.826 238.061 663.891 237.955 663.957 237.846ZM417.061 238.091L417.582 237.149C417.645 237.034 417.705 236.92 417.767 236.807C417.54 237.225 417.305 237.653 417.061 238.091ZM236.704 237.572C236.771 237.564 236.836 237.559 236.898 237.552C236.965 237.545 237.03 237.534 237.092 237.527C236.971 237.541 236.842 237.557 236.704 237.572ZM237.549 237.467C237.645 237.454 237.731 237.443 237.808 237.43C237.731 237.443 237.645 237.454 237.549 237.467ZM237.895 237.416C237.935 237.408 237.973 237.401 238.006 237.394C237.973 237.401 237.935 237.408 237.895 237.416ZM664.337 237.227C664.303 237.28 664.271 237.334 664.238 237.386C664.29 237.302 664.343 237.217 664.397 237.131C664.377 237.163 664.357 237.195 664.337 237.227ZM238.448 237.292C238.333 237.311 238.231 237.333 238.144 237.361C238.127 237.366 238.106 237.37 238.083 237.375C238.106 237.37 238.127 237.367 238.144 237.362C238.231 237.334 238.332 237.311 238.448 237.292ZM664.816 236.474C664.77 236.546 664.724 236.619 664.679 236.69C664.738 236.597 664.798 236.503 664.859 236.409L664.816 236.474ZM417.971 236.427C418.148 236.098 418.32 235.775 418.486 235.458C418.32 235.775 418.148 236.098 417.971 236.427ZM705.178 236.277C704.468 236.3 703.753 236.317 703.042 236.328C703.394 236.322 703.746 236.316 704.099 236.308L705.178 236.278C706.354 236.237 707.401 236.204 708.332 236.179V236.178C707.401 236.203 706.354 236.236 705.178 236.277ZM691.676 235.796C691.78 235.824 691.9 235.85 692.036 235.875C691.9 235.85 691.78 235.823 691.676 235.795C691.497 235.747 691.327 235.703 691.166 235.664L691.676 235.796ZM418.598 235.243C418.78 234.893 418.956 234.551 419.125 234.216C418.956 234.551 418.78 234.893 418.598 235.243ZM419.241 233.987C419.429 233.612 419.609 233.248 419.78 232.891C419.609 233.248 419.429 233.613 419.241 233.987ZM174.446 232.318C174.386 232.339 174.326 232.363 174.267 232.384C174.381 232.343 174.496 232.302 174.613 232.26L174.446 232.318ZM176.792 231.558C176.579 231.621 176.37 231.686 176.164 231.75C176.639 231.602 177.134 231.456 177.648 231.312L176.792 231.558ZM508.549 231.184C508.727 231.126 508.905 231.071 509.079 231.014L510.803 230.451C510.105 230.681 509.346 230.926 508.549 231.184ZM183.146 229.908C182.337 230.124 181.441 230.351 180.449 230.589H180.45C180.119 230.669 179.795 230.748 179.478 230.828L179.477 230.829C179.794 230.749 180.119 230.669 180.45 230.589C181.441 230.351 182.337 230.124 183.146 229.908ZM368.981 226.437C368.985 226.287 368.988 226.137 368.991 225.987C368.988 226.137 368.985 226.287 368.981 226.437ZM91.2685 225.012C91.1037 225.238 90.9381 225.462 90.7744 225.688C90.9381 225.462 91.1037 225.238 91.2685 225.012ZM369.006 225.059C369.006 225.006 369.008 224.952 369.009 224.899L369.01 224.682C369.009 224.808 369.007 224.933 369.006 225.059ZM190.094 224.362C190.089 224.335 190.084 224.308 190.079 224.282C190.084 224.308 190.089 224.335 190.094 224.362ZM92.5517 223.273C92.4309 223.435 92.3108 223.597 92.1904 223.759C92.3108 223.597 92.4309 223.435 92.5517 223.273ZM189.827 223.408C189.855 223.476 189.882 223.548 189.907 223.622V223.621C189.882 223.547 189.855 223.476 189.827 223.408ZM189.812 223.374C189.791 223.322 189.768 223.272 189.745 223.224C189.768 223.272 189.791 223.322 189.812 223.374ZM189.632 223.011C189.587 222.937 189.54 222.869 189.492 222.809C189.504 222.823 189.516 222.838 189.527 222.853C189.563 222.901 189.598 222.955 189.632 223.011ZM189.455 222.763C189.442 222.748 189.428 222.733 189.414 222.719C189.428 222.733 189.442 222.748 189.455 222.763ZM189.367 222.674C189.356 222.664 189.345 222.654 189.333 222.644C189.345 222.654 189.356 222.664 189.367 222.674ZM189.253 222.586C189.263 222.593 189.272 222.599 189.282 222.606C189.272 222.599 189.263 222.592 189.253 222.585C189.221 222.566 189.189 222.542 189.158 222.512C189.189 222.542 189.221 222.567 189.253 222.586ZM204.169 222.275C204.184 222.278 204.2 222.28 204.215 222.283C204.153 222.27 204.092 222.257 204.034 222.239L204.169 222.275ZM203.433 221.921H203.434H203.433ZM94.2217 221.067C94.041 221.303 93.8599 221.539 93.6797 221.776C93.86 221.539 94.0409 221.303 94.2217 221.067ZM202.59 221.067L202.6 221.079C202.567 221.037 202.536 220.992 202.504 220.947C202.533 220.988 202.56 221.029 202.59 221.067ZM188.326 219.01L188.322 218.7C188.32 218.617 188.316 218.534 188.311 218.451C188.321 218.637 188.326 218.825 188.326 219.01ZM324.73 216.592C324.733 216.657 324.736 216.721 324.738 216.786C324.736 216.721 324.733 216.657 324.73 216.592ZM35.1162 213.328C35.0929 214.377 35.0778 215.51 35.0674 216.75V216.75C35.0778 215.512 35.0929 214.378 35.1162 213.329V213.328ZM98.9267 215.148C98.5361 215.62 98.1427 216.101 97.747 216.589C98.5386 215.613 99.3221 214.666 100.09 213.757L98.9267 215.148ZM324.703 215.748C324.706 215.869 324.71 215.991 324.714 216.115C324.71 215.991 324.706 215.869 324.703 215.748ZM420.174 212.375C420.291 213.235 420.415 214.167 420.546 215.175C420.578 215.43 420.617 215.693 420.661 215.96C420.617 215.693 420.578 215.429 420.546 215.174C420.415 214.166 420.292 213.235 420.174 212.374V212.375ZM324.694 213.212C324.678 213.917 324.68 214.665 324.696 215.453C324.68 214.665 324.678 213.917 324.694 213.212ZM187.361 214.953C187.406 215.025 187.45 215.084 187.492 215.129L187.562 215.215C187.539 215.183 187.516 215.154 187.492 215.128C187.45 215.083 187.406 215.024 187.361 214.953ZM186.767 213.464C186.823 213.651 186.879 213.828 186.936 213.992C186.879 213.828 186.823 213.651 186.767 213.464ZM186.571 212.762C186.621 212.958 186.674 213.147 186.727 213.328C186.674 213.147 186.621 212.958 186.571 212.762ZM112.419 206.041C112.501 206.366 112.572 206.712 112.628 207.07C112.776 208.024 113.064 209.881 113.41 212.105C113.064 209.881 112.776 208.023 112.628 207.069C112.572 206.711 112.501 206.365 112.419 206.04V206.041ZM548.675 210.316C548.757 210.542 548.836 210.772 548.906 211.006L548.778 210.604C548.746 210.507 548.71 210.411 548.675 210.316ZM525.79 206.735C526.019 206.673 526.247 206.613 526.474 206.551L526.586 206.52C526.322 206.592 526.056 206.663 525.79 206.735ZM110.997 203.595C110.936 203.595 110.871 203.602 110.802 203.615L110.902 203.601C110.935 203.598 110.966 203.596 110.997 203.596C111.016 203.596 111.035 203.597 111.054 203.6L110.997 203.595ZM431.205 198.031L431.246 198.012C431.248 198.011 431.25 198.009 431.252 198.007C431.236 198.018 431.22 198.026 431.205 198.031ZM431.267 197.997C431.279 197.988 431.291 197.978 431.304 197.966C431.291 197.978 431.279 197.988 431.267 197.997ZM431.317 197.953C431.327 197.943 431.336 197.932 431.346 197.921C431.336 197.932 431.327 197.943 431.317 197.953ZM416.726 195.233C416.769 195.578 416.807 195.898 416.84 196.185V196.184C416.807 195.897 416.769 195.577 416.726 195.232V195.233ZM426.457 68.8149C426.211 70.5196 425.98 72.2474 425.777 73.9233C425.261 78.2091 424.998 90.6446 425.021 103.355C425.045 116.083 425.355 128.359 425.883 132.353L425.884 132.359C426.28 135.388 426.878 140.789 427.216 144.396L427.428 146.562C428.346 155.638 429.974 168.427 431.329 177.375C434.611 152.325 434.141 126.552 429.936 91.0513V91.0503C429.102 84.003 428.535 80.3303 426.457 68.8149ZM148.812 168.89C147.481 169.965 146.11 171.066 144.773 172.136C144.158 172.629 143.536 173.13 142.914 173.632L144.773 172.137C146.11 171.067 147.48 169.966 148.812 168.89ZM719.143 166.574C719.332 166.526 719.523 166.477 719.717 166.427C719.523 166.477 719.332 166.526 719.143 166.574ZM52.1201 166.357H52.1211H52.1201ZM724.778 165.09C723.954 165.293 723.203 165.487 722.543 165.67C721.978 165.827 721.43 165.975 720.896 166.118C721.012 166.087 721.129 166.057 721.246 166.026L722.543 165.671C723.203 165.488 723.954 165.293 724.778 165.09ZM780.088 156.008L777.4 156.564L780.088 156.009C780.301 155.965 780.594 155.91 780.958 155.845L780.088 156.008ZM812.892 151.182C812.202 151.26 811.226 151.382 810.039 151.539V151.54C810.633 151.461 811.174 151.391 811.652 151.332C812.131 151.272 812.547 151.222 812.892 151.183C813.147 151.155 813.424 151.121 813.718 151.085C813.424 151.121 813.147 151.154 812.892 151.182ZM39.2656 148.533C39.1709 148.633 39.0778 148.734 38.9834 148.833C39.1572 148.65 39.3311 148.465 39.5058 148.282C39.426 148.366 39.3453 148.449 39.2656 148.533ZM41.2881 146.428C41.1506 146.57 41.0132 146.711 40.8759 146.853C41.0132 146.711 41.1507 146.57 41.2881 146.428ZM42.7529 144.933C42.6968 144.99 42.6411 145.047 42.5849 145.104C42.6661 145.022 42.747 144.94 42.8281 144.858C42.8032 144.883 42.7778 144.908 42.7529 144.933ZM869.574 143.842C869.252 143.857 868.933 143.873 868.618 143.888C868.933 143.873 869.252 143.857 869.574 143.842ZM44.4922 143.196C44.4395 143.248 44.3877 143.301 44.3349 143.353C44.5368 143.153 44.7378 142.955 44.9384 142.758C44.7902 142.903 44.6411 143.049 44.4922 143.196ZM46.205 141.53C45.8907 141.831 45.5736 142.137 45.2549 142.448C45.5734 142.137 45.8907 141.831 46.205 141.53ZM47.8584 139.973C47.6659 140.152 47.4769 140.328 47.291 140.502C47.4769 140.328 47.6658 140.152 47.8584 139.973ZM49.5615 138.417C49.4527 138.516 49.3438 138.613 49.2363 138.71C49.3438 138.613 49.4527 138.516 49.5615 138.417ZM52.9931 135.376C52.9552 135.409 52.9178 135.443 52.8799 135.476C52.9376 135.426 52.9948 135.375 53.0527 135.325L52.9931 135.376ZM742.466 133.637L744.217 133.574C744.281 133.571 744.346 133.567 744.41 133.565C743.77 133.59 743.121 133.615 742.466 133.637ZM744.973 133.542C745.431 133.523 745.885 133.503 746.333 133.483C745.885 133.503 745.431 133.523 744.973 133.542ZM746.879 133.458C747.307 133.438 747.73 133.417 748.147 133.396C747.73 133.417 747.307 133.438 746.879 133.458ZM748.796 133.362C749.356 133.332 749.904 133.303 750.437 133.271C749.904 133.303 749.356 133.332 748.796 133.362ZM760.282 132.272C760.307 132.264 760.331 132.258 760.353 132.25L760.356 132.249C760.334 132.257 760.309 132.264 760.282 132.272ZM196.046 130.534V130.535L202.606 125.143V125.142L196.046 130.534ZM61.8027 128.038C61.0157 128.662 60.1991 129.321 59.3652 130.002C59.2274 130.115 59.0899 130.229 58.9511 130.343C60.1192 129.384 61.2583 128.467 62.334 127.62C62.1588 127.757 61.9811 127.896 61.8027 128.038ZM63.0771 127.037C62.9401 127.143 62.8025 127.252 62.6631 127.361C62.8024 127.252 62.9402 127.143 63.0771 127.037ZM91.3955 124.946C91.4223 124.955 91.4449 124.968 91.4629 124.986L91.4883 125.024C91.4782 125.005 91.4696 124.992 91.4629 124.985C91.4449 124.967 91.4222 124.954 91.3955 124.946ZM421.276 121.611C421.286 121.938 421.295 122.262 421.306 122.581C421.295 122.262 421.286 121.938 421.276 121.611ZM232.296 99.3804C224.781 106.004 216.507 113.294 213.902 115.591C213.416 116.022 212.842 116.524 212.206 117.074C212.842 116.524 213.416 116.023 213.902 115.592L232.296 99.3813C232.642 99.0761 232.989 98.7652 233.339 98.4526C232.989 98.7651 232.642 99.0753 232.296 99.3804ZM85.6787 102.46C85.6983 102.548 85.7178 102.634 85.7373 102.718C85.7178 102.634 85.6983 102.548 85.6787 102.46ZM202.748 97.0649C202.406 98.2938 202.08 99.5279 201.772 100.77V100.771C202.081 99.5286 202.406 98.2941 202.748 97.0649ZM85.167 99.9097C85.1942 100.058 85.2209 100.205 85.248 100.349C85.2209 100.205 85.1942 100.058 85.167 99.9097ZM263.178 28.5806C262.093 28.6402 261.043 28.7822 260.263 28.9458C260.012 28.9983 259.82 29.0481 259.682 29.0874C258.985 29.6172 258.239 29.9544 257.659 30.1616C256.854 30.4494 255.883 30.6626 254.888 30.6626C254.984 30.6626 254.721 30.6579 253.966 30.9556C253.273 31.2284 252.388 31.6656 251.327 32.2837C249.209 33.5181 246.653 35.3195 243.945 37.4897C238.509 41.8473 232.827 47.4029 229.201 52.2251L229.199 52.2271C222.715 60.8372 221.296 63.138 216.447 72.9058C211.827 82.2185 208.549 90.7696 206.193 99.6382C206.78 99.1416 207.384 98.6335 207.999 98.1196C212.704 94.182 223.108 84.4482 231.055 76.5132L233.353 74.2104C244.336 63.162 247.891 58.8694 251.22 53.2192L251.223 53.2124L251.227 53.2065C251.902 52.0691 253.123 50.3698 254.046 49.3022L254.334 48.9507C255.821 47.0502 257.987 43.0588 259.919 38.6147C260.916 36.3222 261.789 34.0487 262.418 32.0952C262.928 30.511 263.213 29.3269 263.33 28.5728L263.178 28.5806ZM761.445 96.6831C761.447 96.0226 761.449 95.3536 761.451 94.6763C761.449 95.3536 761.447 96.0226 761.445 96.6831ZM147.25 48.9956C141.439 47.9744 135.425 48.0358 130.184 48.9927C124.843 49.9678 120.705 51.796 118.319 53.9487L118.318 53.9478C117.679 54.526 116.977 55.0686 116.318 55.4907C116.028 55.6767 115.694 55.8703 115.341 56.0415C115.318 56.076 115.293 56.112 115.269 56.1499C114.811 56.8549 114.207 57.9119 113.554 59.1606C112.228 61.6945 110.929 64.5763 110.38 66.3042L110.381 66.3052C108.761 71.4147 107.628 78.8237 107.265 84.9966C107.153 86.8911 107.119 88.5962 107.155 90.0269C107.872 89.5 108.523 89.0091 108.884 88.7144C109.738 88.0164 113.182 85.4351 116.449 83.02L116.453 83.0171C121.72 79.1313 127.881 73.9301 132.997 69.1948C135.553 66.8295 137.813 64.6127 139.549 62.7642C141.388 60.8062 142.354 59.5563 142.631 59.0464L142.633 59.0425C144.305 55.9721 145.488 53.588 146.275 51.7212C146.77 50.5484 147.073 49.6598 147.25 48.9956ZM192.726 81.939C192.658 82.1538 192.588 82.3848 192.515 82.6304C192.66 82.1443 192.794 81.7165 192.915 81.355L192.726 81.939ZM157.078 80.6821L157.079 80.6841C157.09 80.6838 157.101 80.6815 157.111 80.6812C157.1 80.6815 157.089 80.6818 157.078 80.6821ZM82.2705 72.5171C82.1989 73.6917 82.2727 75.6738 82.4482 78.1011C82.2726 75.6732 82.1988 73.6906 82.2705 72.5161C82.2896 72.1952 82.3111 71.8773 82.333 71.562C82.3111 71.8776 82.2896 72.1959 82.2705 72.5171ZM153.549 79.2319C153.407 79.3606 153.264 79.488 153.121 79.6157C153.264 79.4881 153.407 79.3615 153.549 79.2329C153.742 79.0582 153.935 78.8871 154.126 78.7222C153.935 78.887 153.742 79.0573 153.549 79.2319ZM157.443 76.3345C157.481 76.299 157.522 76.2626 157.563 76.2222L157.592 76.1938C157.54 76.2448 157.49 76.2909 157.443 76.3345ZM431.13 72.2163C431.095 72.0185 431.059 71.8179 431.023 71.6147C431.06 71.8179 431.095 72.0185 431.13 72.2163ZM167.735 63.6792C167.908 63.4325 168.064 63.2025 168.203 62.9937C168.064 63.2027 167.908 63.4325 167.735 63.6792ZM168.598 62.3726C168.511 62.5195 168.405 62.6851 168.285 62.8687C168.328 62.8031 168.371 62.7413 168.41 62.6802L168.598 62.3735V62.3726ZM172.248 54.7778C172.111 55.0618 171.969 55.3586 171.828 55.6587C171.969 55.3586 172.111 55.0618 172.248 54.7778ZM172.814 53.6274C172.667 53.9186 172.501 54.256 172.325 54.6177C172.501 54.2564 172.667 53.9194 172.814 53.6284V53.6274ZM113.02 52.6235C112.92 52.6715 112.791 52.7903 112.639 52.9683C112.69 52.9088 112.738 52.8557 112.783 52.8101C112.874 52.7187 112.954 52.6554 113.02 52.6235H113.02ZM273.559 52.8149C273.546 52.8578 273.528 52.9092 273.504 52.9683C273.528 52.91 273.546 52.8594 273.559 52.8169V52.8149ZM274.326 51.4097C274.236 51.5186 274.153 51.6262 274.076 51.73C274.229 51.5223 274.412 51.3006 274.614 51.0786L274.326 51.4097ZM275.274 50.4224C275.157 50.5278 275.043 50.6367 274.933 50.7466C275.043 50.6368 275.157 50.5287 275.274 50.4233C275.35 50.3551 275.425 50.2804 275.503 50.2017C275.425 50.2803 275.35 50.3542 275.274 50.4224ZM173.724 48.687C173.749 48.3769 173.769 48.0597 173.788 47.7378C173.769 48.0597 173.749 48.3769 173.724 48.687ZM407.645 47.7378C407.636 47.7897 407.628 47.8419 407.619 47.894C407.643 47.7563 407.669 47.6198 407.693 47.4839C407.678 47.5683 407.661 47.6527 407.645 47.7378ZM173.845 46.5571C173.845 46.5591 173.845 46.561 173.845 46.563C173.845 46.561 173.845 46.5591 173.845 46.5571ZM407.891 46.4487C407.867 46.5635 407.846 46.6793 407.823 46.7954C407.846 46.6793 407.867 46.5635 407.891 46.4487ZM173.871 45.3413C173.874 45.0153 173.875 44.6892 173.871 44.3647C173.875 44.6892 173.874 45.0153 173.871 45.3413ZM211.613 40.1265L211.77 39.8833C211.867 39.7297 211.959 39.5752 212.053 39.4243C211.91 39.6549 211.763 39.8895 211.613 40.1265ZM214.186 35.52C214.194 35.4996 214.202 35.4804 214.209 35.4614L214.213 35.4497C214.205 35.4723 214.196 35.4954 214.186 35.52ZM214.945 33.895C214.864 33.9942 214.789 34.0934 214.72 34.1909C214.858 33.9963 215.021 33.7953 215.203 33.6001L214.945 33.895ZM255.414 26.6206C255.234 26.6472 255.056 26.6616 254.888 26.6616C254.808 26.6616 254.726 26.6652 254.641 26.6714L254.888 26.6626C254.944 26.6626 255.001 26.6608 255.059 26.6577C255.116 26.6546 255.175 26.6501 255.234 26.644C255.353 26.6319 255.474 26.6134 255.595 26.5903L255.414 26.6206ZM256.649 26.2583C256.554 26.3014 256.455 26.3416 256.353 26.3784C256.454 26.3419 256.553 26.3022 256.648 26.2593L256.649 26.2583ZM257.445 25.7446C257.413 25.7765 257.379 25.8084 257.343 25.8394L257.445 25.7456C257.472 25.7187 257.506 25.6925 257.544 25.6655C257.506 25.6924 257.472 25.7178 257.445 25.7446ZM262.959 24.5864C262.801 24.5951 262.643 24.6052 262.486 24.6167C262.643 24.6052 262.801 24.5961 262.959 24.5874L267.556 24.3462L262.959 24.5864ZM241.466 8.62061C241.267 8.725 241.068 8.83083 240.869 8.93896C241.068 8.83082 241.267 8.72505 241.466 8.62061ZM242.434 8.12549C242.193 8.24482 241.952 8.36758 241.711 8.49268C241.952 8.36752 242.193 8.24482 242.434 8.12549ZM364.718 557.645C364.741 557.621 364.762 557.599 364.78 557.577L364.785 557.569C364.765 557.593 364.743 557.618 364.718 557.645ZM396.182 498.387C396.18 498.422 396.179 498.456 396.178 498.491C396.179 498.456 396.18 498.422 396.182 498.387ZM636.787 390.884C636.8 390.639 636.809 390.388 636.815 390.131C636.809 390.388 636.8 390.639 636.787 390.884ZM294.871 372.09C294.899 372.007 294.927 371.925 294.953 371.843C294.926 371.925 294.899 372.007 294.871 372.09ZM294.871 372.09C294.869 372.096 294.868 372.102 294.866 372.108C294.84 372.184 294.811 372.261 294.783 372.338C294.813 372.255 294.843 372.173 294.871 372.09ZM272.861 274.178C272.898 274.11 272.934 274.041 272.971 273.97C272.934 274.041 272.898 274.11 272.861 274.178ZM420.43 268.815C420.718 268.241 421.007 267.662 421.293 267.083C421.007 267.662 420.718 268.241 420.43 268.815ZM29.872 249.784C29.9962 249.714 30.1163 249.644 30.2314 249.571C30.2332 249.57 30.2346 249.568 30.2363 249.567C30.1195 249.641 29.998 249.713 29.872 249.784ZM663.107 239.33C663.051 239.437 663 239.534 662.957 239.623C663 239.534 663.051 239.437 663.107 239.33ZM189.72 223.172C189.693 223.119 189.665 223.067 189.637 223.019C189.665 223.067 189.693 223.119 189.72 223.172ZM324.716 212.575L324.709 212.714C324.704 212.85 324.701 212.987 324.697 213.126C324.702 212.939 324.709 212.755 324.716 212.575ZM450.305 138.905C450.301 138.743 450.299 138.58 450.296 138.417C450.278 137.619 450.258 136.812 450.236 135.994C450.262 136.979 450.285 137.949 450.305 138.905ZM173.799 47.5454C173.817 47.2243 173.832 46.8989 173.844 46.5708C173.832 46.8989 173.817 47.2243 173.799 47.5454ZM173.865 45.8315C173.867 45.7502 173.866 45.6688 173.867 45.5874C173.862 45.9118 173.856 46.2357 173.845 46.5571C173.853 46.3164 173.86 46.0743 173.865 45.8315Z" fill="white"/>
</svg>
